<?xml version="1.0"?>
<svg xmlns="http://www.w3.org/2000/svg" version="1.1" width="4.7244094488189in" height="4.7244094488189in" viewBox="0 0 4.7244094488189 4.7244094488189" preserveAspectRatio="xMidYMid slice"><path d="M 4.7244094488189 2.3622047244094 A 2.3622047244094 2.3622047244094 0 0 0 4.7154205466734 2.1563250171315 L 2.3622047244094 2.3622047244094 L 4.7244094488189 2.3622047244094" fill="#000"/><path d="M 4.7154205466734 2.1563250171315 A 2.3622047244094 2.3622047244094 0 0 0 4.6885222512099 1.9520121787395 L 2.3622047244094 2.3622047244094 L 4.7154205466734 2.1563250171315" fill="#fff"/><path d="M 4.6885222512099 1.9520121787395 A 2.3622047244094 2.3622047244094 0 0 0 4.6439192746986 1.7508211533011 L 2.3622047244094 2.3622047244094 L 4.6885222512099 1.9520121787395" fill="#000"/><path d="M 4.6439192746986 1.7508211533011 A 2.3622047244094 2.3622047244094 0 0 0 4.5819510727226 1.5542831260024 L 2.3622047244094 2.3622047244094 L 4.6439192746986 1.7508211533011" fill="#fff"/><path d="M 4.5819510727226 1.5542831260024 A 2.3622047244094 2.3622047244094 0 0 0 4.5030892607165 1.3638938699039 L 2.3622047244094 2.3622047244094 L 4.5819510727226 1.5542831260024" fill="#000"/><path d="M 4.5030892607165 1.3638938699039 A 2.3622047244094 2.3622047244094 0 0 0 4.4079340246877 1.1811023622047 L 2.3622047244094 2.3622047244094 L 4.5030892607165 1.3638938699039" fill="#fff"/><path d="M 4.4079340246877 1.1811023622047 A 2.3622047244094 2.3622047244094 0 0 0 4.2972095534386 1.0072997566511 L 2.3622047244094 2.3622047244094 L 4.4079340246877 1.1811023622047" fill="#000"/><path d="M 4.2972095534386 1.0072997566511 A 2.3622047244094 2.3622047244094 0 0 0 4.1717585270527 0.84380879601605 L 2.3622047244094 2.3622047244094 L 4.2972095534386 1.0072997566511" fill="#fff"/><path d="M 4.1717585270527 0.84380879601605 A 2.3622047244094 2.3622047244094 0 0 0 4.0325357035903 0.69187374522863 L 2.3622047244094 2.3622047244094 L 4.1717585270527 0.84380879601605" fill="#000"/><path d="M 4.0325357035903 0.69187374522863 A 2.3622047244094 2.3622047244094 0 0 0 3.8806006528028 0.55265092176619 L 2.3622047244094 2.3622047244094 L 4.0325357035903 0.69187374522863" fill="#fff"/><path d="M 3.8806006528028 0.55265092176619 A 2.3622047244094 2.3622047244094 0 0 0 3.7171096921678 0.42719989538033 L 2.3622047244094 2.3622047244094 L 3.8806006528028 0.55265092176619" fill="#000"/><path d="M 3.7171096921678 0.42719989538033 A 2.3622047244094 2.3622047244094 0 0 0 3.5433070866142 0.31647542413125 L 2.3622047244094 2.3622047244094 L 3.7171096921678 0.42719989538033" fill="#fff"/><path d="M 3.5433070866142 0.31647542413125 A 2.3622047244094 2.3622047244094 0 0 0 3.360515578915 0.2213201881024 L 2.3622047244094 2.3622047244094 L 3.5433070866142 0.31647542413125" fill="#000"/><path d="M 3.360515578915 0.2213201881024 A 2.3622047244094 2.3622047244094 0 0 0 3.1701263228165 0.14245837609628 L 2.3622047244094 2.3622047244094 L 3.360515578915 0.2213201881024" fill="#fff"/><path d="M 3.1701263228165 0.14245837609628 A 2.3622047244094 2.3622047244094 0 0 0 2.9735882955178 0.080490174120311 L 2.3622047244094 2.3622047244094 L 3.1701263228165 0.14245837609628" fill="#000"/><path d="M 2.9735882955178 0.080490174120311 A 2.3622047244094 2.3622047244094 0 0 0 2.7723972700794 0.035887197608957 L 2.3622047244094 2.3622047244094 L 2.9735882955178 0.080490174120311" fill="#fff"/><path d="M 2.7723972700794 0.035887197608957 A 2.3622047244094 2.3622047244094 0 0 0 2.5680844316874 0.0089889021454828 L 2.3622047244094 2.3622047244094 L 2.7723972700794 0.035887197608957" fill="#000"/><path d="M 2.5680844316874 0.0089889021454828 A 2.3622047244094 2.3622047244094 0 0 0 2.3622047244094 0 L 2.3622047244094 2.3622047244094 L 2.5680844316874 0.0089889021454828" fill="#fff"/><path d="M 2.3622047244094 0 A 2.3622047244094 2.3622047244094 0 0 0 2.1563250171315 0.0089889021454828 L 2.3622047244094 2.3622047244094 L 2.3622047244094 0" fill="#000"/><path d="M 2.1563250171315 0.0089889021454828 A 2.3622047244094 2.3622047244094 0 0 0 1.9520121787395 0.035887197608957 L 2.3622047244094 2.3622047244094 L 2.1563250171315 0.0089889021454828" fill="#fff"/><path d="M 1.9520121787395 0.035887197608957 A 2.3622047244094 2.3622047244094 0 0 0 1.7508211533011 0.080490174120311 L 2.3622047244094 2.3622047244094 L 1.9520121787395 0.035887197608957" fill="#000"/><path d="M 1.7508211533011 0.080490174120311 A 2.3622047244094 2.3622047244094 0 0 0 1.5542831260024 0.14245837609628 L 2.3622047244094 2.3622047244094 L 1.7508211533011 0.080490174120311" fill="#fff"/><path d="M 1.5542831260024 0.14245837609628 A 2.3622047244094 2.3622047244094 0 0 0 1.3638938699039 0.2213201881024 L 2.3622047244094 2.3622047244094 L 1.5542831260024 0.14245837609628" fill="#000"/><path d="M 1.3638938699039 0.2213201881024 A 2.3622047244094 2.3622047244094 0 0 0 1.1811023622047 0.31647542413125 L 2.3622047244094 2.3622047244094 L 1.3638938699039 0.2213201881024" fill="#fff"/><path d="M 1.1811023622047 0.31647542413125 A 2.3622047244094 2.3622047244094 0 0 0 1.0072997566511 0.42719989538033 L 2.3622047244094 2.3622047244094 L 1.1811023622047 0.31647542413125" fill="#000"/><path d="M 1.0072997566511 0.42719989538033 A 2.3622047244094 2.3622047244094 0 0 0 0.84380879601605 0.55265092176619 L 2.3622047244094 2.3622047244094 L 1.0072997566511 0.42719989538033" fill="#fff"/><path d="M 0.84380879601605 0.55265092176619 A 2.3622047244094 2.3622047244094 0 0 0 0.69187374522863 0.69187374522863 L 2.3622047244094 2.3622047244094 L 0.84380879601605 0.55265092176619" fill="#000"/><path d="M 0.69187374522863 0.69187374522863 A 2.3622047244094 2.3622047244094 0 0 0 0.55265092176619 0.84380879601605 L 2.3622047244094 2.3622047244094 L 0.69187374522863 0.69187374522863" fill="#fff"/><path d="M 0.55265092176619 0.84380879601605 A 2.3622047244094 2.3622047244094 0 0 0 0.42719989538033 1.0072997566511 L 2.3622047244094 2.3622047244094 L 0.55265092176619 0.84380879601605" fill="#000"/><path d="M 0.42719989538033 1.0072997566511 A 2.3622047244094 2.3622047244094 0 0 0 0.31647542413125 1.1811023622047 L 2.3622047244094 2.3622047244094 L 0.42719989538033 1.0072997566511" fill="#fff"/><path d="M 0.31647542413125 1.1811023622047 A 2.3622047244094 2.3622047244094 0 0 0 0.2213201881024 1.3638938699039 L 2.3622047244094 2.3622047244094 L 0.31647542413125 1.1811023622047" fill="#000"/><path d="M 0.2213201881024 1.3638938699039 A 2.3622047244094 2.3622047244094 0 0 0 0.14245837609628 1.5542831260024 L 2.3622047244094 2.3622047244094 L 0.2213201881024 1.3638938699039" fill="#fff"/><path d="M 0.14245837609628 1.5542831260024 A 2.3622047244094 2.3622047244094 0 0 0 0.080490174120311 1.7508211533011 L 2.3622047244094 2.3622047244094 L 0.14245837609628 1.5542831260024" fill="#000"/><path d="M 0.080490174120311 1.7508211533011 A 2.3622047244094 2.3622047244094 0 0 0 0.035887197608957 1.9520121787395 L 2.3622047244094 2.3622047244094 L 0.080490174120311 1.7508211533011" fill="#fff"/><path d="M 0.035887197608957 1.9520121787395 A 2.3622047244094 2.3622047244094 0 0 0 0.0089889021454828 2.1563250171315 L 2.3622047244094 2.3622047244094 L 0.035887197608957 1.9520121787395" fill="#000"/><path d="M 0.0089889021454828 2.1563250171315 A 2.3622047244094 2.3622047244094 0 0 0 0 2.3622047244094 L 2.3622047244094 2.3622047244094 L 0.0089889021454828 2.1563250171315" fill="#fff"/><path d="M 0 2.3622047244094 A 2.3622047244094 2.3622047244094 0 0 0 0.0089889021454828 2.5680844316874 L 2.3622047244094 2.3622047244094 L 0 2.3622047244094" fill="#000"/><path d="M 0.0089889021454828 2.5680844316874 A 2.3622047244094 2.3622047244094 0 0 0 0.035887197608957 2.7723972700794 L 2.3622047244094 2.3622047244094 L 0.0089889021454828 2.5680844316874" fill="#fff"/><path d="M 0.035887197608957 2.7723972700794 A 2.3622047244094 2.3622047244094 0 0 0 0.080490174120311 2.9735882955178 L 2.3622047244094 2.3622047244094 L 0.035887197608957 2.7723972700794" fill="#000"/><path d="M 0.080490174120311 2.9735882955178 A 2.3622047244094 2.3622047244094 0 0 0 0.14245837609628 3.1701263228165 L 2.3622047244094 2.3622047244094 L 0.080490174120311 2.9735882955178" fill="#fff"/><path d="M 0.14245837609628 3.1701263228165 A 2.3622047244094 2.3622047244094 0 0 0 0.2213201881024 3.360515578915 L 2.3622047244094 2.3622047244094 L 0.14245837609628 3.1701263228165" fill="#000"/><path d="M 0.2213201881024 3.360515578915 A 2.3622047244094 2.3622047244094 0 0 0 0.31647542413125 3.5433070866142 L 2.3622047244094 2.3622047244094 L 0.2213201881024 3.360515578915" fill="#fff"/><path d="M 0.31647542413125 3.5433070866142 A 2.3622047244094 2.3622047244094 0 0 0 0.42719989538033 3.7171096921678 L 2.3622047244094 2.3622047244094 L 0.31647542413125 3.5433070866142" fill="#000"/><path d="M 0.42719989538033 3.7171096921678 A 2.3622047244094 2.3622047244094 0 0 0 0.55265092176619 3.8806006528028 L 2.3622047244094 2.3622047244094 L 0.42719989538033 3.7171096921678" fill="#fff"/><path d="M 0.55265092176619 3.8806006528028 A 2.3622047244094 2.3622047244094 0 0 0 0.69187374522863 4.0325357035903 L 2.3622047244094 2.3622047244094 L 0.55265092176619 3.8806006528028" fill="#000"/><path d="M 0.69187374522863 4.0325357035903 A 2.3622047244094 2.3622047244094 0 0 0 0.84380879601605 4.1717585270527 L 2.3622047244094 2.3622047244094 L 0.69187374522863 4.0325357035903" fill="#fff"/><path d="M 0.84380879601605 4.1717585270527 A 2.3622047244094 2.3622047244094 0 0 0 1.0072997566511 4.2972095534386 L 2.3622047244094 2.3622047244094 L 0.84380879601605 4.1717585270527" fill="#000"/><path d="M 1.0072997566511 4.2972095534386 A 2.3622047244094 2.3622047244094 0 0 0 1.1811023622047 4.4079340246877 L 2.3622047244094 2.3622047244094 L 1.0072997566511 4.2972095534386" fill="#fff"/><path d="M 1.1811023622047 4.4079340246877 A 2.3622047244094 2.3622047244094 0 0 0 1.3638938699039 4.5030892607165 L 2.3622047244094 2.3622047244094 L 1.1811023622047 4.4079340246877" fill="#000"/><path d="M 1.3638938699039 4.5030892607165 A 2.3622047244094 2.3622047244094 0 0 0 1.5542831260024 4.5819510727226 L 2.3622047244094 2.3622047244094 L 1.3638938699039 4.5030892607165" fill="#fff"/><path d="M 1.5542831260024 4.5819510727226 A 2.3622047244094 2.3622047244094 0 0 0 1.7508211533011 4.6439192746986 L 2.3622047244094 2.3622047244094 L 1.5542831260024 4.5819510727226" fill="#000"/><path d="M 1.7508211533011 4.6439192746986 A 2.3622047244094 2.3622047244094 0 0 0 1.9520121787395 4.6885222512099 L 2.3622047244094 2.3622047244094 L 1.7508211533011 4.6439192746986" fill="#fff"/><path d="M 1.9520121787395 4.6885222512099 A 2.3622047244094 2.3622047244094 0 0 0 2.1563250171315 4.7154205466734 L 2.3622047244094 2.3622047244094 L 1.9520121787395 4.6885222512099" fill="#000"/><path d="M 2.1563250171315 4.7154205466734 A 2.3622047244094 2.3622047244094 0 0 0 2.3622047244094 4.7244094488189 L 2.3622047244094 2.3622047244094 L 2.1563250171315 4.7154205466734" fill="#fff"/><path d="M 2.3622047244094 4.7244094488189 A 2.3622047244094 2.3622047244094 0 0 0 2.5680844316874 4.7154205466734 L 2.3622047244094 2.3622047244094 L 2.3622047244094 4.7244094488189" fill="#000"/><path d="M 2.5680844316874 4.7154205466734 A 2.3622047244094 2.3622047244094 0 0 0 2.7723972700794 4.6885222512099 L 2.3622047244094 2.3622047244094 L 2.5680844316874 4.7154205466734" fill="#fff"/><path d="M 2.7723972700794 4.6885222512099 A 2.3622047244094 2.3622047244094 0 0 0 2.9735882955178 4.6439192746986 L 2.3622047244094 2.3622047244094 L 2.7723972700794 4.6885222512099" fill="#000"/><path d="M 2.9735882955178 4.6439192746986 A 2.3622047244094 2.3622047244094 0 0 0 3.1701263228165 4.5819510727226 L 2.3622047244094 2.3622047244094 L 2.9735882955178 4.6439192746986" fill="#fff"/><path d="M 3.1701263228165 4.5819510727226 A 2.3622047244094 2.3622047244094 0 0 0 3.360515578915 4.5030892607165 L 2.3622047244094 2.3622047244094 L 3.1701263228165 4.5819510727226" fill="#000"/><path d="M 3.360515578915 4.5030892607165 A 2.3622047244094 2.3622047244094 0 0 0 3.5433070866142 4.4079340246877 L 2.3622047244094 2.3622047244094 L 3.360515578915 4.5030892607165" fill="#fff"/><path d="M 3.5433070866142 4.4079340246877 A 2.3622047244094 2.3622047244094 0 0 0 3.7171096921678 4.2972095534386 L 2.3622047244094 2.3622047244094 L 3.5433070866142 4.4079340246877" fill="#000"/><path d="M 3.7171096921678 4.2972095534386 A 2.3622047244094 2.3622047244094 0 0 0 3.8806006528028 4.1717585270527 L 2.3622047244094 2.3622047244094 L 3.7171096921678 4.2972095534386" fill="#fff"/><path d="M 3.8806006528028 4.1717585270527 A 2.3622047244094 2.3622047244094 0 0 0 4.0325357035903 4.0325357035903 L 2.3622047244094 2.3622047244094 L 3.8806006528028 4.1717585270527" fill="#000"/><path d="M 4.0325357035903 4.0325357035903 A 2.3622047244094 2.3622047244094 0 0 0 4.1717585270527 3.8806006528028 L 2.3622047244094 2.3622047244094 L 4.0325357035903 4.0325357035903" fill="#fff"/><path d="M 4.1717585270527 3.8806006528028 A 2.3622047244094 2.3622047244094 0 0 0 4.2972095534386 3.7171096921678 L 2.3622047244094 2.3622047244094 L 4.1717585270527 3.8806006528028" fill="#000"/><path d="M 4.2972095534386 3.7171096921678 A 2.3622047244094 2.3622047244094 0 0 0 4.4079340246877 3.5433070866142 L 2.3622047244094 2.3622047244094 L 4.2972095534386 3.7171096921678" fill="#fff"/><path d="M 4.4079340246877 3.5433070866142 A 2.3622047244094 2.3622047244094 0 0 0 4.5030892607165 3.360515578915 L 2.3622047244094 2.3622047244094 L 4.4079340246877 3.5433070866142" fill="#000"/><path d="M 4.5030892607165 3.360515578915 A 2.3622047244094 2.3622047244094 0 0 0 4.5819510727226 3.1701263228165 L 2.3622047244094 2.3622047244094 L 4.5030892607165 3.360515578915" fill="#fff"/><path d="M 4.5819510727226 3.1701263228165 A 2.3622047244094 2.3622047244094 0 0 0 4.6439192746986 2.9735882955178 L 2.3622047244094 2.3622047244094 L 4.5819510727226 3.1701263228165" fill="#000"/><path d="M 4.6439192746986 2.9735882955178 A 2.3622047244094 2.3622047244094 0 0 0 4.6885222512099 2.7723972700794 L 2.3622047244094 2.3622047244094 L 4.6439192746986 2.9735882955178" fill="#fff"/><path d="M 4.6885222512099 2.7723972700794 A 2.3622047244094 2.3622047244094 0 0 0 4.7154205466734 2.5680844316874 L 2.3622047244094 2.3622047244094 L 4.6885222512099 2.7723972700794" fill="#000"/><path d="M 4.7154205466734 2.5680844316874 A 2.3622047244094 2.3622047244094 0 0 0 4.7244094488189 2.3622047244094 L 2.3622047244094 2.3622047244094 L 4.7154205466734 2.5680844316874" fill="#fff"/><path d="M 4.7182278926281 2.2593385313707 A 2.3582677165354 2.3582677165354 0 0 0 4.7002971337123 2.0543890191346 L 2.3622047244094 2.3622047244094 L 4.7182278926281 2.2593385313707" fill="#000"/><path d="M 4.7002971337123 2.0543890191346 A 2.3582677165354 2.3582677165354 0 0 0 4.6645720797828 1.8517821702798 L 2.3622047244094 2.3622047244094 L 4.7002971337123 2.0543890191346" fill="#fff"/><path d="M 4.6645720797828 1.8517821702798 A 2.3582677165354 2.3582677165354 0 0 0 4.6113246200716 1.6530599452635 L 2.3622047244094 2.3622047244094 L 4.6645720797828 1.8517821702798" fill="#000"/><path d="M 4.6113246200716 1.6530599452635 A 2.3582677165354 2.3582677165354 0 0 0 4.5409599998987 1.4597347402099 L 2.3622047244094 2.3622047244094 L 4.6113246200716 1.6530599452635" fill="#fff"/><path d="M 4.5409599998987 1.4597347402099 A 2.3582677165354 2.3582677165354 0 0 0 4.4540137365108 1.2732778766623 L 2.3622047244094 2.3622047244094 L 4.5409599998987 1.4597347402099" fill="#000"/><path d="M 4.4540137365108 1.2732778766623 A 2.3582677165354 2.3582677165354 0 0 0 4.3511475434721 1.095108403938 L 2.3622047244094 2.3622047244094 L 4.4540137365108 1.2732778766623" fill="#fff"/><path d="M 4.3511475434721 1.095108403938 A 2.3582677165354 2.3582677165354 0 0 0 4.2331442946238 0.92658229930621 L 2.3622047244094 2.3622047244094 L 4.3511475434721 1.095108403938" fill="#000"/><path d="M 4.2331442946238 0.92658229930621 A 2.3582677165354 2.3582677165354 0 0 0 4.100902065942 0.76898214818197 L 2.3622047244094 2.3622047244094 L 4.2331442946238 0.92658229930621" fill="#fff"/><path d="M 4.100902065942 0.76898214818197 A 2.3582677165354 2.3582677165354 0 0 0 3.9554273006369 0.62350738287691 L 2.3622047244094 2.3622047244094 L 4.100902065942 0.76898214818197" fill="#000"/><path d="M 3.9554273006369 0.62350738287691 A 2.3582677165354 2.3582677165354 0 0 0 3.7978271495127 0.49126515419508 L 2.3622047244094 2.3622047244094 L 3.9554273006369 0.62350738287691" fill="#fff"/><path d="M 3.7978271495127 0.49126515419508 A 2.3582677165354 2.3582677165354 0 0 0 3.6293010448809 0.37326190534678 L 2.3622047244094 2.3622047244094 L 3.7978271495127 0.49126515419508" fill="#000"/><path d="M 3.6293010448809 0.37326190534678 A 2.3582677165354 2.3582677165354 0 0 0 3.4511315721566 0.27039571230805 L 2.3622047244094 2.3622047244094 L 3.6293010448809 0.37326190534678" fill="#fff"/><path d="M 3.4511315721566 0.27039571230805 A 2.3582677165354 2.3582677165354 0 0 0 3.264674708609 0.18344944892023 L 2.3622047244094 2.3622047244094 L 3.4511315721566 0.27039571230805" fill="#000"/><path d="M 3.264674708609 0.18344944892023 A 2.3582677165354 2.3582677165354 0 0 0 3.0713495035554 0.11308482874729 L 2.3622047244094 2.3622047244094 L 3.264674708609 0.18344944892023" fill="#fff"/><path d="M 3.0713495035554 0.11308482874729 A 2.3582677165354 2.3582677165354 0 0 0 2.8726272785391 0.059837369036063 L 2.3622047244094 2.3622047244094 L 3.0713495035554 0.11308482874729" fill="#000"/><path d="M 2.8726272785391 0.059837369036063 A 2.3582677165354 2.3582677165354 0 0 0 2.6700204296843 0.024112315106644 L 2.3622047244094 2.3622047244094 L 2.8726272785391 0.059837369036063" fill="#fff"/><path d="M 2.6700204296843 0.024112315106644 A 2.3582677165354 2.3582677165354 0 0 0 2.4650709174482 0.0061815561908158 L 2.3622047244094 2.3622047244094 L 2.6700204296843 0.024112315106644" fill="#000"/><path d="M 2.4650709174482 0.0061815561908158 A 2.3582677165354 2.3582677165354 0 0 0 2.2593385313707 0.0061815561908158 L 2.3622047244094 2.3622047244094 L 2.4650709174482 0.0061815561908158" fill="#fff"/><path d="M 2.2593385313707 0.0061815561908158 A 2.3582677165354 2.3582677165354 0 0 0 2.0543890191346 0.024112315106644 L 2.3622047244094 2.3622047244094 L 2.2593385313707 0.0061815561908158" fill="#000"/><path d="M 2.0543890191346 0.024112315106644 A 2.3582677165354 2.3582677165354 0 0 0 1.8517821702798 0.059837369036063 L 2.3622047244094 2.3622047244094 L 2.0543890191346 0.024112315106644" fill="#fff"/><path d="M 1.8517821702798 0.059837369036063 A 2.3582677165354 2.3582677165354 0 0 0 1.6530599452635 0.11308482874729 L 2.3622047244094 2.3622047244094 L 1.8517821702798 0.059837369036063" fill="#000"/><path d="M 1.6530599452635 0.11308482874729 A 2.3582677165354 2.3582677165354 0 0 0 1.4597347402099 0.18344944892023 L 2.3622047244094 2.3622047244094 L 1.6530599452635 0.11308482874729" fill="#fff"/><path d="M 1.4597347402099 0.18344944892023 A 2.3582677165354 2.3582677165354 0 0 0 1.2732778766623 0.27039571230805 L 2.3622047244094 2.3622047244094 L 1.4597347402099 0.18344944892023" fill="#000"/><path d="M 1.2732778766623 0.27039571230805 A 2.3582677165354 2.3582677165354 0 0 0 1.095108403938 0.37326190534678 L 2.3622047244094 2.3622047244094 L 1.2732778766623 0.27039571230805" fill="#fff"/><path d="M 1.095108403938 0.37326190534678 A 2.3582677165354 2.3582677165354 0 0 0 0.92658229930621 0.49126515419508 L 2.3622047244094 2.3622047244094 L 1.095108403938 0.37326190534678" fill="#000"/><path d="M 0.92658229930621 0.49126515419508 A 2.3582677165354 2.3582677165354 0 0 0 0.76898214818197 0.62350738287691 L 2.3622047244094 2.3622047244094 L 0.92658229930621 0.49126515419508" fill="#fff"/><path d="M 0.76898214818197 0.62350738287691 A 2.3582677165354 2.3582677165354 0 0 0 0.62350738287691 0.76898214818197 L 2.3622047244094 2.3622047244094 L 0.76898214818197 0.62350738287691" fill="#000"/><path d="M 0.62350738287691 0.76898214818197 A 2.3582677165354 2.3582677165354 0 0 0 0.49126515419508 0.92658229930621 L 2.3622047244094 2.3622047244094 L 0.62350738287691 0.76898214818197" fill="#fff"/><path d="M 0.49126515419508 0.92658229930621 A 2.3582677165354 2.3582677165354 0 0 0 0.37326190534678 1.095108403938 L 2.3622047244094 2.3622047244094 L 0.49126515419508 0.92658229930621" fill="#000"/><path d="M 0.37326190534678 1.095108403938 A 2.3582677165354 2.3582677165354 0 0 0 0.27039571230805 1.2732778766623 L 2.3622047244094 2.3622047244094 L 0.37326190534678 1.095108403938" fill="#fff"/><path d="M 0.27039571230805 1.2732778766623 A 2.3582677165354 2.3582677165354 0 0 0 0.18344944892023 1.4597347402099 L 2.3622047244094 2.3622047244094 L 0.27039571230805 1.2732778766623" fill="#000"/><path d="M 0.18344944892023 1.4597347402099 A 2.3582677165354 2.3582677165354 0 0 0 0.11308482874729 1.6530599452635 L 2.3622047244094 2.3622047244094 L 0.18344944892023 1.4597347402099" fill="#fff"/><path d="M 0.11308482874729 1.6530599452635 A 2.3582677165354 2.3582677165354 0 0 0 0.059837369036063 1.8517821702798 L 2.3622047244094 2.3622047244094 L 0.11308482874729 1.6530599452635" fill="#000"/><path d="M 0.059837369036063 1.8517821702798 A 2.3582677165354 2.3582677165354 0 0 0 0.024112315106644 2.0543890191346 L 2.3622047244094 2.3622047244094 L 0.059837369036063 1.8517821702798" fill="#fff"/><path d="M 0.024112315106644 2.0543890191346 A 2.3582677165354 2.3582677165354 0 0 0 0.0061815561908158 2.2593385313707 L 2.3622047244094 2.3622047244094 L 0.024112315106644 2.0543890191346" fill="#000"/><path d="M 0.0061815561908158 2.2593385313707 A 2.3582677165354 2.3582677165354 0 0 0 0.0061815561908158 2.4650709174482 L 2.3622047244094 2.3622047244094 L 0.0061815561908158 2.2593385313707" fill="#fff"/><path d="M 0.0061815561908158 2.4650709174482 A 2.3582677165354 2.3582677165354 0 0 0 0.024112315106644 2.6700204296843 L 2.3622047244094 2.3622047244094 L 0.0061815561908158 2.4650709174482" fill="#000"/><path d="M 0.024112315106644 2.6700204296843 A 2.3582677165354 2.3582677165354 0 0 0 0.059837369036063 2.8726272785391 L 2.3622047244094 2.3622047244094 L 0.024112315106644 2.6700204296843" fill="#fff"/><path d="M 0.059837369036063 2.8726272785391 A 2.3582677165354 2.3582677165354 0 0 0 0.11308482874729 3.0713495035554 L 2.3622047244094 2.3622047244094 L 0.059837369036063 2.8726272785391" fill="#000"/><path d="M 0.11308482874729 3.0713495035554 A 2.3582677165354 2.3582677165354 0 0 0 0.18344944892023 3.264674708609 L 2.3622047244094 2.3622047244094 L 0.11308482874729 3.0713495035554" fill="#fff"/><path d="M 0.18344944892023 3.264674708609 A 2.3582677165354 2.3582677165354 0 0 0 0.27039571230805 3.4511315721566 L 2.3622047244094 2.3622047244094 L 0.18344944892023 3.264674708609" fill="#000"/><path d="M 0.27039571230805 3.4511315721566 A 2.3582677165354 2.3582677165354 0 0 0 0.37326190534678 3.6293010448809 L 2.3622047244094 2.3622047244094 L 0.27039571230805 3.4511315721566" fill="#fff"/><path d="M 0.37326190534678 3.6293010448809 A 2.3582677165354 2.3582677165354 0 0 0 0.49126515419508 3.7978271495127 L 2.3622047244094 2.3622047244094 L 0.37326190534678 3.6293010448809" fill="#000"/><path d="M 0.49126515419508 3.7978271495127 A 2.3582677165354 2.3582677165354 0 0 0 0.62350738287691 3.9554273006369 L 2.3622047244094 2.3622047244094 L 0.49126515419508 3.7978271495127" fill="#fff"/><path d="M 0.62350738287691 3.9554273006369 A 2.3582677165354 2.3582677165354 0 0 0 0.76898214818197 4.100902065942 L 2.3622047244094 2.3622047244094 L 0.62350738287691 3.9554273006369" fill="#000"/><path d="M 0.76898214818197 4.100902065942 A 2.3582677165354 2.3582677165354 0 0 0 0.92658229930621 4.2331442946238 L 2.3622047244094 2.3622047244094 L 0.76898214818197 4.100902065942" fill="#fff"/><path d="M 0.92658229930621 4.2331442946238 A 2.3582677165354 2.3582677165354 0 0 0 1.095108403938 4.3511475434721 L 2.3622047244094 2.3622047244094 L 0.92658229930621 4.2331442946238" fill="#000"/><path d="M 1.095108403938 4.3511475434721 A 2.3582677165354 2.3582677165354 0 0 0 1.2732778766623 4.4540137365108 L 2.3622047244094 2.3622047244094 L 1.095108403938 4.3511475434721" fill="#fff"/><path d="M 1.2732778766623 4.4540137365108 A 2.3582677165354 2.3582677165354 0 0 0 1.4597347402099 4.5409599998987 L 2.3622047244094 2.3622047244094 L 1.2732778766623 4.4540137365108" fill="#000"/><path d="M 1.4597347402099 4.5409599998987 A 2.3582677165354 2.3582677165354 0 0 0 1.6530599452635 4.6113246200716 L 2.3622047244094 2.3622047244094 L 1.4597347402099 4.5409599998987" fill="#fff"/><path d="M 1.6530599452635 4.6113246200716 A 2.3582677165354 2.3582677165354 0 0 0 1.8517821702798 4.6645720797828 L 2.3622047244094 2.3622047244094 L 1.6530599452635 4.6113246200716" fill="#000"/><path d="M 1.8517821702798 4.6645720797828 A 2.3582677165354 2.3582677165354 0 0 0 2.0543890191346 4.7002971337123 L 2.3622047244094 2.3622047244094 L 1.8517821702798 4.6645720797828" fill="#fff"/><path d="M 2.0543890191346 4.7002971337123 A 2.3582677165354 2.3582677165354 0 0 0 2.2593385313707 4.7182278926281 L 2.3622047244094 2.3622047244094 L 2.0543890191346 4.7002971337123" fill="#000"/><path d="M 2.2593385313707 4.7182278926281 A 2.3582677165354 2.3582677165354 0 0 0 2.4650709174482 4.7182278926281 L 2.3622047244094 2.3622047244094 L 2.2593385313707 4.7182278926281" fill="#fff"/><path d="M 2.4650709174482 4.7182278926281 A 2.3582677165354 2.3582677165354 0 0 0 2.6700204296843 4.7002971337123 L 2.3622047244094 2.3622047244094 L 2.4650709174482 4.7182278926281" fill="#000"/><path d="M 2.6700204296843 4.7002971337123 A 2.3582677165354 2.3582677165354 0 0 0 2.8726272785391 4.6645720797828 L 2.3622047244094 2.3622047244094 L 2.6700204296843 4.7002971337123" fill="#fff"/><path d="M 2.8726272785391 4.6645720797828 A 2.3582677165354 2.3582677165354 0 0 0 3.0713495035554 4.6113246200716 L 2.3622047244094 2.3622047244094 L 2.8726272785391 4.6645720797828" fill="#000"/><path d="M 3.0713495035554 4.6113246200716 A 2.3582677165354 2.3582677165354 0 0 0 3.264674708609 4.5409599998987 L 2.3622047244094 2.3622047244094 L 3.0713495035554 4.6113246200716" fill="#fff"/><path d="M 3.264674708609 4.5409599998987 A 2.3582677165354 2.3582677165354 0 0 0 3.4511315721566 4.4540137365108 L 2.3622047244094 2.3622047244094 L 3.264674708609 4.5409599998987" fill="#000"/><path d="M 3.4511315721566 4.4540137365108 A 2.3582677165354 2.3582677165354 0 0 0 3.6293010448809 4.3511475434721 L 2.3622047244094 2.3622047244094 L 3.4511315721566 4.4540137365108" fill="#fff"/><path d="M 3.6293010448809 4.3511475434721 A 2.3582677165354 2.3582677165354 0 0 0 3.7978271495127 4.2331442946238 L 2.3622047244094 2.3622047244094 L 3.6293010448809 4.3511475434721" fill="#000"/><path d="M 3.7978271495127 4.2331442946238 A 2.3582677165354 2.3582677165354 0 0 0 3.9554273006369 4.100902065942 L 2.3622047244094 2.3622047244094 L 3.7978271495127 4.2331442946238" fill="#fff"/><path d="M 3.9554273006369 4.100902065942 A 2.3582677165354 2.3582677165354 0 0 0 4.100902065942 3.9554273006369 L 2.3622047244094 2.3622047244094 L 3.9554273006369 4.100902065942" fill="#000"/><path d="M 4.100902065942 3.9554273006369 A 2.3582677165354 2.3582677165354 0 0 0 4.2331442946238 3.7978271495127 L 2.3622047244094 2.3622047244094 L 4.100902065942 3.9554273006369" fill="#fff"/><path d="M 4.2331442946238 3.7978271495127 A 2.3582677165354 2.3582677165354 0 0 0 4.3511475434721 3.6293010448809 L 2.3622047244094 2.3622047244094 L 4.2331442946238 3.7978271495127" fill="#000"/><path d="M 4.3511475434721 3.6293010448809 A 2.3582677165354 2.3582677165354 0 0 0 4.4540137365108 3.4511315721566 L 2.3622047244094 2.3622047244094 L 4.3511475434721 3.6293010448809" fill="#fff"/><path d="M 4.4540137365108 3.4511315721566 A 2.3582677165354 2.3582677165354 0 0 0 4.5409599998987 3.264674708609 L 2.3622047244094 2.3622047244094 L 4.4540137365108 3.4511315721566" fill="#000"/><path d="M 4.5409599998987 3.264674708609 A 2.3582677165354 2.3582677165354 0 0 0 4.6113246200716 3.0713495035554 L 2.3622047244094 2.3622047244094 L 4.5409599998987 3.264674708609" fill="#fff"/><path d="M 4.6113246200716 3.0713495035554 A 2.3582677165354 2.3582677165354 0 0 0 4.6645720797828 2.8726272785391 L 2.3622047244094 2.3622047244094 L 4.6113246200716 3.0713495035554" fill="#000"/><path d="M 4.6645720797828 2.8726272785391 A 2.3582677165354 2.3582677165354 0 0 0 4.7002971337123 2.6700204296843 L 2.3622047244094 2.3622047244094 L 4.6645720797828 2.8726272785391" fill="#fff"/><path d="M 4.7002971337123 2.6700204296843 A 2.3582677165354 2.3582677165354 0 0 0 4.7182278926281 2.4650709174482 L 2.3622047244094 2.3622047244094 L 4.7002971337123 2.6700204296843" fill="#000"/><path d="M 4.7182278926281 2.4650709174482 A 2.3582677165354 2.3582677165354 0 0 0 4.7182278926281 2.2593385313707 L 2.3622047244094 2.3622047244094 L 4.7182278926281 2.4650709174482" fill="#fff"/><path d="M 2.3740157480315 2.3622047244094 A 0.011811023622047 0.011811023622047 0 0 0 2.3503937007874 2.3622047244094 A 0.011811023622047 0.011811023622047 0 0 0 2.3740157480315 2.3622047244094" fill="#fff"/><path d="M 2.3740157480315 2.3622047244094 A 0.011811023622047 0.011811023622047 0 0 0 2.3503937007874 2.3622047244094 A 0.011811023622047 0.011811023622047 0 0 0 2.3740157480315 2.3622047244094" fill="none" stroke="#000" stroke-width="0.008"/><path d="M 4.7204724409449 2.3622047244094 A 2.3582677165354 2.3582677165354 0 0 0 0.0039370078740157 2.3622047244094 A 2.3582677165354 2.3582677165354 0 0 0 4.7204724409449 2.3622047244094" fill="none" stroke="#000" stroke-width="0.008"/><path d="M 4.7244094488189 2.3622047244094 A 2.3622047244094 2.3622047244094 0 0 0 0 2.3622047244094 A 2.3622047244094 2.3622047244094 0 0 0 4.7244094488189 2.3622047244094" fill="none" stroke="#000" stroke-width="0.008"/></svg>
