<?xml version="1.0"?>
<svg xmlns="http://www.w3.org/2000/svg" version="1.1" width="5.5in" height="5.5in" viewBox="0 0 5.5 5.5" preserveAspectRatio="xMidYMid slice"><path d="M 5.5 2.75 A 2.75 2.75 0 0 0 5.49852761556 2.6600225222401 L 2.75 2.75 L 5.5 2.75" fill="#000"/><path d="M 5.49852761556 2.6600225222401 A 2.75 2.75 0 0 0 5.4941120389062 2.5701413946171 L 2.75 2.75 L 5.49852761556 2.6600225222401" fill="#fff"/><path d="M 5.4941120389062 2.5701413946171 A 2.75 2.75 0 0 0 5.4867579983485 2.4804528640937 L 2.75 2.75 L 5.4941120389062 2.5701413946171" fill="#000"/><path d="M 5.4867579983485 2.4804528640937 A 2.75 2.75 0 0 0 5.476473368778 2.3910529713949 L 2.75 2.75 L 5.4867579983485 2.4804528640937" fill="#fff"/><path d="M 5.476473368778 2.3910529713949 A 2.75 2.75 0 0 0 5.4632691632334 2.3020374481649 L 2.75 2.75 L 5.476473368778 2.3910529713949" fill="#000"/><path d="M 5.4632691632334 2.3020374481649 A 2.75 2.75 0 0 0 5.4471595211089 2.2135016144556 L 2.75 2.75 L 5.4632691632334 2.3020374481649" fill="#fff"/><path d="M 5.4471595211089 2.2135016144556 A 2.75 2.75 0 0 0 5.4281616930127 2.1255402766555 L 2.75 2.75 L 5.4471595211089 2.2135016144556" fill="#000"/><path d="M 5.4281616930127 2.1255402766555 A 2.75 2.75 0 0 0 5.4062960222949 2.0382476259681 L 2.75 2.75 L 5.4281616930127 2.1255402766555" fill="#fff"/><path d="M 5.4062960222949 2.0382476259681 A 2.75 2.75 0 0 0 5.3815859232636 1.9517171375502 L 2.75 2.75 L 5.4062960222949 2.0382476259681" fill="#000"/><path d="M 5.3815859232636 1.9517171375502 A 2.75 2.75 0 0 0 5.3540578561115 1.8660414704163 L 2.75 2.75 L 5.3815859232636 1.9517171375502" fill="#fff"/><path d="M 5.3540578561115 1.8660414704163 A 2.75 2.75 0 0 0 5.3237412985826 1.7813123682166 L 2.75 2.75 L 5.3540578561115 1.8660414704163" fill="#000"/><path d="M 5.3237412985826 1.7813123682166 A 2.75 2.75 0 0 0 5.290668714406 1.697620560996 L 2.75 2.75 L 5.3237412985826 1.7813123682166" fill="#fff"/><path d="M 5.290668714406 1.697620560996 A 2.75 2.75 0 0 0 5.2548755185332 1.6150556680379 L 2.75 2.75 L 5.290668714406 1.697620560996" fill="#000"/><path d="M 5.2548755185332 1.6150556680379 A 2.75 2.75 0 0 0 5.2164000392149 1.5337061018977 L 2.75 2.75 L 5.2548755185332 1.6150556680379" fill="#fff"/><path d="M 5.2164000392149 1.5337061018977 A 2.75 2.75 0 0 0 5.175283476958 1.4536589737285 L 2.75 2.75 L 5.2164000392149 1.5337061018977" fill="#000"/><path d="M 5.175283476958 1.4536589737285 A 2.75 2.75 0 0 0 5.1315698604072 1.375 L 2.75 2.75 L 5.175283476958 1.4536589737285" fill="#fff"/><path d="M 5.1315698604072 1.375 A 2.75 2.75 0 0 0 5.0853059991981 1.2978134107115 L 2.75 2.75 L 5.1315698604072 1.375" fill="#000"/><path d="M 5.0853059991981 1.2978134107115 A 2.75 2.75 0 0 0 5.036541433832 1.2221818591961 L 2.75 2.75 L 5.0853059991981 1.2978134107115" fill="#fff"/><path d="M 5.036541433832 1.2221818591961 A 2.75 2.75 0 0 0 4.9853283826269 1.1481863336135 L 2.75 2.75 L 5.036541433832 1.2221818591961" fill="#000"/><path d="M 4.9853283826269 1.1481863336135 A 2.75 2.75 0 0 0 4.9317216858009 1.075906070226 L 2.75 2.75 L 4.9853283826269 1.1481863336135" fill="#fff"/><path d="M 4.9317216858009 1.075906070226 A 2.75 2.75 0 0 0 4.8757787467475 1.00541846855 L 2.75 2.75 L 4.9317216858009 1.075906070226" fill="#000"/><path d="M 4.8757787467475 1.00541846855 A 2.75 2.75 0 0 0 4.8175594705672 0.93679900847481 L 2.75 2.75 L 4.8757787467475 1.00541846855" fill="#fff"/><path d="M 4.8175594705672 0.93679900847481 A 2.75 2.75 0 0 0 4.757126199919 0.8701211694371 L 2.75 2.75 L 4.8175594705672 0.93679900847481" fill="#000"/><path d="M 4.757126199919 0.8701211694371 A 2.75 2.75 0 0 0 4.694543648263 0.80545635173699 L 2.75 2.75 L 4.757126199919 0.8701211694371" fill="#fff"/><path d="M 4.694543648263 0.80545635173699 A 2.75 2.75 0 0 0 4.6298788305629 0.74287380008095 L 2.75 2.75 L 4.694543648263 0.80545635173699" fill="#000"/><path d="M 4.6298788305629 0.74287380008095 A 2.75 2.75 0 0 0 4.5632009915252 0.68244052943281 L 2.75 2.75 L 4.6298788305629 0.74287380008095" fill="#fff"/><path d="M 4.5632009915252 0.68244052943281 A 2.75 2.75 0 0 0 4.49458153145 0.62422125325247 L 2.75 2.75 L 4.5632009915252 0.68244052943281" fill="#000"/><path d="M 4.49458153145 0.62422125325247 A 2.75 2.75 0 0 0 4.424093929774 0.5682783141991 L 2.75 2.75 L 4.49458153145 0.62422125325247" fill="#fff"/><path d="M 4.424093929774 0.5682783141991 A 2.75 2.75 0 0 0 4.3518136663865 0.51467161737306 L 2.75 2.75 L 4.424093929774 0.5682783141991" fill="#000"/><path d="M 4.3518136663865 0.51467161737306 A 2.75 2.75 0 0 0 4.2778181408039 0.463458566168 L 2.75 2.75 L 4.3518136663865 0.51467161737306" fill="#fff"/><path d="M 4.2778181408039 0.463458566168 A 2.75 2.75 0 0 0 4.2021865892885 0.41469400080191 L 2.75 2.75 L 4.2778181408039 0.463458566168" fill="#000"/><path d="M 4.2021865892885 0.41469400080191 A 2.75 2.75 0 0 0 4.125 0.36843013959279 L 2.75 2.75 L 4.2021865892885 0.41469400080191" fill="#fff"/><path d="M 4.125 0.36843013959279 A 2.75 2.75 0 0 0 4.0463410262715 0.32471652304202 L 2.75 2.75 L 4.125 0.36843013959279" fill="#000"/><path d="M 4.0463410262715 0.32471652304202 A 2.75 2.75 0 0 0 3.9662938981023 0.28359996078511 L 2.75 2.75 L 4.0463410262715 0.32471652304202" fill="#fff"/><path d="M 3.9662938981023 0.28359996078511 A 2.75 2.75 0 0 0 3.8849443319621 0.24512448146677 L 2.75 2.75 L 3.9662938981023 0.28359996078511" fill="#000"/><path d="M 3.8849443319621 0.24512448146677 A 2.75 2.75 0 0 0 3.802379439004 0.20933128559396 L 2.75 2.75 L 3.8849443319621 0.24512448146677" fill="#fff"/><path d="M 3.802379439004 0.20933128559396 A 2.75 2.75 0 0 0 3.7186876317834 0.17625870141735 L 2.75 2.75 L 3.802379439004 0.20933128559396" fill="#000"/><path d="M 3.7186876317834 0.17625870141735 A 2.75 2.75 0 0 0 3.6339585295837 0.14594214388846 L 2.75 2.75 L 3.7186876317834 0.17625870141735" fill="#fff"/><path d="M 3.6339585295837 0.14594214388846 A 2.75 2.75 0 0 0 3.5482828624498 0.11841407673643 L 2.75 2.75 L 3.6339585295837 0.14594214388846" fill="#000"/><path d="M 3.5482828624498 0.11841407673643 A 2.75 2.75 0 0 0 3.4617523740319 0.093703977705062 L 2.75 2.75 L 3.5482828624498 0.11841407673643" fill="#fff"/><path d="M 3.4617523740319 0.093703977705062 A 2.75 2.75 0 0 0 3.3744597233445 0.071838306987333 L 2.75 2.75 L 3.4617523740319 0.093703977705062" fill="#000"/><path d="M 3.3744597233445 0.071838306987333 A 2.75 2.75 0 0 0 3.2864983855444 0.052840478891116 L 2.75 2.75 L 3.3744597233445 0.071838306987333" fill="#fff"/><path d="M 3.2864983855444 0.052840478891116 A 2.75 2.75 0 0 0 3.1979625518351 0.036730836766583 L 2.75 2.75 L 3.2864983855444 0.052840478891116" fill="#000"/><path d="M 3.1979625518351 0.036730836766583 A 2.75 2.75 0 0 0 3.1089470286051 0.023526631222021 L 2.75 2.75 L 3.1979625518351 0.036730836766583" fill="#fff"/><path d="M 3.1089470286051 0.023526631222021 A 2.75 2.75 0 0 0 3.0195471359063 0.013242001651459 L 2.75 2.75 L 3.1089470286051 0.023526631222021" fill="#000"/><path d="M 3.0195471359063 0.013242001651459 A 2.75 2.75 0 0 0 2.9298586053829 0.0058879610938405 L 2.75 2.75 L 3.0195471359063 0.013242001651459" fill="#fff"/><path d="M 2.9298586053829 0.0058879610938405 A 2.75 2.75 0 0 0 2.8399774777599 0.0014723844399942 L 2.75 2.75 L 2.9298586053829 0.0058879610938405" fill="#000"/><path d="M 2.8399774777599 0.0014723844399942 A 2.75 2.75 0 0 0 2.75 0 L 2.75 2.75 L 2.8399774777599 0.0014723844399942" fill="#fff"/><path d="M 2.75 0 A 2.75 2.75 0 0 0 2.6600225222401 0.0014723844399942 L 2.75 2.75 L 2.75 0" fill="#000"/><path d="M 2.6600225222401 0.0014723844399942 A 2.75 2.75 0 0 0 2.5701413946171 0.0058879610938405 L 2.75 2.75 L 2.6600225222401 0.0014723844399942" fill="#fff"/><path d="M 2.5701413946171 0.0058879610938405 A 2.75 2.75 0 0 0 2.4804528640937 0.013242001651459 L 2.75 2.75 L 2.5701413946171 0.0058879610938405" fill="#000"/><path d="M 2.4804528640937 0.013242001651459 A 2.75 2.75 0 0 0 2.3910529713949 0.023526631222021 L 2.75 2.75 L 2.4804528640937 0.013242001651459" fill="#fff"/><path d="M 2.3910529713949 0.023526631222021 A 2.75 2.75 0 0 0 2.3020374481649 0.036730836766583 L 2.75 2.75 L 2.3910529713949 0.023526631222021" fill="#000"/><path d="M 2.3020374481649 0.036730836766583 A 2.75 2.75 0 0 0 2.2135016144556 0.052840478891116 L 2.75 2.75 L 2.3020374481649 0.036730836766583" fill="#fff"/><path d="M 2.2135016144556 0.052840478891116 A 2.75 2.75 0 0 0 2.1255402766555 0.071838306987333 L 2.75 2.75 L 2.2135016144556 0.052840478891116" fill="#000"/><path d="M 2.1255402766555 0.071838306987333 A 2.75 2.75 0 0 0 2.0382476259681 0.093703977705062 L 2.75 2.75 L 2.1255402766555 0.071838306987333" fill="#fff"/><path d="M 2.0382476259681 0.093703977705062 A 2.75 2.75 0 0 0 1.9517171375502 0.11841407673643 L 2.75 2.75 L 2.0382476259681 0.093703977705062" fill="#000"/><path d="M 1.9517171375502 0.11841407673643 A 2.75 2.75 0 0 0 1.8660414704163 0.14594214388846 L 2.75 2.75 L 1.9517171375502 0.11841407673643" fill="#fff"/><path d="M 1.8660414704163 0.14594214388846 A 2.75 2.75 0 0 0 1.7813123682166 0.17625870141735 L 2.75 2.75 L 1.8660414704163 0.14594214388846" fill="#000"/><path d="M 1.7813123682166 0.17625870141735 A 2.75 2.75 0 0 0 1.697620560996 0.20933128559396 L 2.75 2.75 L 1.7813123682166 0.17625870141735" fill="#fff"/><path d="M 1.697620560996 0.20933128559396 A 2.75 2.75 0 0 0 1.6150556680379 0.24512448146677 L 2.75 2.75 L 1.697620560996 0.20933128559396" fill="#000"/><path d="M 1.6150556680379 0.24512448146677 A 2.75 2.75 0 0 0 1.5337061018977 0.28359996078511 L 2.75 2.75 L 1.6150556680379 0.24512448146677" fill="#fff"/><path d="M 1.5337061018977 0.28359996078511 A 2.75 2.75 0 0 0 1.4536589737285 0.32471652304202 L 2.75 2.75 L 1.5337061018977 0.28359996078511" fill="#000"/><path d="M 1.4536589737285 0.32471652304202 A 2.75 2.75 0 0 0 1.375 0.36843013959279 L 2.75 2.75 L 1.4536589737285 0.32471652304202" fill="#fff"/><path d="M 1.375 0.36843013959279 A 2.75 2.75 0 0 0 1.2978134107115 0.41469400080191 L 2.75 2.75 L 1.375 0.36843013959279" fill="#000"/><path d="M 1.2978134107115 0.41469400080191 A 2.75 2.75 0 0 0 1.2221818591961 0.463458566168 L 2.75 2.75 L 1.2978134107115 0.41469400080191" fill="#fff"/><path d="M 1.2221818591961 0.463458566168 A 2.75 2.75 0 0 0 1.1481863336135 0.51467161737306 L 2.75 2.75 L 1.2221818591961 0.463458566168" fill="#000"/><path d="M 1.1481863336135 0.51467161737306 A 2.75 2.75 0 0 0 1.075906070226 0.5682783141991 L 2.75 2.75 L 1.1481863336135 0.51467161737306" fill="#fff"/><path d="M 1.075906070226 0.5682783141991 A 2.75 2.75 0 0 0 1.00541846855 0.62422125325247 L 2.75 2.75 L 1.075906070226 0.5682783141991" fill="#000"/><path d="M 1.00541846855 0.62422125325247 A 2.75 2.75 0 0 0 0.93679900847481 0.68244052943281 L 2.75 2.75 L 1.00541846855 0.62422125325247" fill="#fff"/><path d="M 0.93679900847481 0.68244052943281 A 2.75 2.75 0 0 0 0.8701211694371 0.74287380008095 L 2.75 2.75 L 0.93679900847481 0.68244052943281" fill="#000"/><path d="M 0.8701211694371 0.74287380008095 A 2.75 2.75 0 0 0 0.80545635173699 0.80545635173699 L 2.75 2.75 L 0.8701211694371 0.74287380008095" fill="#fff"/><path d="M 0.80545635173699 0.80545635173699 A 2.75 2.75 0 0 0 0.74287380008095 0.8701211694371 L 2.75 2.75 L 0.80545635173699 0.80545635173699" fill="#000"/><path d="M 0.74287380008095 0.8701211694371 A 2.75 2.75 0 0 0 0.68244052943281 0.93679900847481 L 2.75 2.75 L 0.74287380008095 0.8701211694371" fill="#fff"/><path d="M 0.68244052943281 0.93679900847481 A 2.75 2.75 0 0 0 0.62422125325247 1.00541846855 L 2.75 2.75 L 0.68244052943281 0.93679900847481" fill="#000"/><path d="M 0.62422125325247 1.00541846855 A 2.75 2.75 0 0 0 0.5682783141991 1.075906070226 L 2.75 2.75 L 0.62422125325247 1.00541846855" fill="#fff"/><path d="M 0.5682783141991 1.075906070226 A 2.75 2.75 0 0 0 0.51467161737306 1.1481863336135 L 2.75 2.75 L 0.5682783141991 1.075906070226" fill="#000"/><path d="M 0.51467161737306 1.1481863336135 A 2.75 2.75 0 0 0 0.463458566168 1.2221818591961 L 2.75 2.75 L 0.51467161737306 1.1481863336135" fill="#fff"/><path d="M 0.463458566168 1.2221818591961 A 2.75 2.75 0 0 0 0.41469400080191 1.2978134107115 L 2.75 2.75 L 0.463458566168 1.2221818591961" fill="#000"/><path d="M 0.41469400080191 1.2978134107115 A 2.75 2.75 0 0 0 0.36843013959279 1.375 L 2.75 2.75 L 0.41469400080191 1.2978134107115" fill="#fff"/><path d="M 0.36843013959279 1.375 A 2.75 2.75 0 0 0 0.32471652304202 1.4536589737285 L 2.75 2.75 L 0.36843013959279 1.375" fill="#000"/><path d="M 0.32471652304202 1.4536589737285 A 2.75 2.75 0 0 0 0.28359996078511 1.5337061018977 L 2.75 2.75 L 0.32471652304202 1.4536589737285" fill="#fff"/><path d="M 0.28359996078511 1.5337061018977 A 2.75 2.75 0 0 0 0.24512448146677 1.6150556680379 L 2.75 2.75 L 0.28359996078511 1.5337061018977" fill="#000"/><path d="M 0.24512448146677 1.6150556680379 A 2.75 2.75 0 0 0 0.20933128559396 1.697620560996 L 2.75 2.75 L 0.24512448146677 1.6150556680379" fill="#fff"/><path d="M 0.20933128559396 1.697620560996 A 2.75 2.75 0 0 0 0.17625870141735 1.7813123682166 L 2.75 2.75 L 0.20933128559396 1.697620560996" fill="#000"/><path d="M 0.17625870141735 1.7813123682166 A 2.75 2.75 0 0 0 0.14594214388846 1.8660414704163 L 2.75 2.75 L 0.17625870141735 1.7813123682166" fill="#fff"/><path d="M 0.14594214388846 1.8660414704163 A 2.75 2.75 0 0 0 0.11841407673643 1.9517171375502 L 2.75 2.75 L 0.14594214388846 1.8660414704163" fill="#000"/><path d="M 0.11841407673643 1.9517171375502 A 2.75 2.75 0 0 0 0.093703977705062 2.0382476259681 L 2.75 2.75 L 0.11841407673643 1.9517171375502" fill="#fff"/><path d="M 0.093703977705062 2.0382476259681 A 2.75 2.75 0 0 0 0.071838306987333 2.1255402766555 L 2.75 2.75 L 0.093703977705062 2.0382476259681" fill="#000"/><path d="M 0.071838306987333 2.1255402766555 A 2.75 2.75 0 0 0 0.052840478891116 2.2135016144556 L 2.75 2.75 L 0.071838306987333 2.1255402766555" fill="#fff"/><path d="M 0.052840478891116 2.2135016144556 A 2.75 2.75 0 0 0 0.036730836766583 2.3020374481649 L 2.75 2.75 L 0.052840478891116 2.2135016144556" fill="#000"/><path d="M 0.036730836766583 2.3020374481649 A 2.75 2.75 0 0 0 0.023526631222021 2.3910529713949 L 2.75 2.75 L 0.036730836766583 2.3020374481649" fill="#fff"/><path d="M 0.023526631222021 2.3910529713949 A 2.75 2.75 0 0 0 0.013242001651459 2.4804528640937 L 2.75 2.75 L 0.023526631222021 2.3910529713949" fill="#000"/><path d="M 0.013242001651459 2.4804528640937 A 2.75 2.75 0 0 0 0.0058879610938405 2.5701413946171 L 2.75 2.75 L 0.013242001651459 2.4804528640937" fill="#fff"/><path d="M 0.0058879610938405 2.5701413946171 A 2.75 2.75 0 0 0 0.0014723844399942 2.6600225222401 L 2.75 2.75 L 0.0058879610938405 2.5701413946171" fill="#000"/><path d="M 0.0014723844399942 2.6600225222401 A 2.75 2.75 0 0 0 0 2.75 L 2.75 2.75 L 0.0014723844399942 2.6600225222401" fill="#fff"/><path d="M 0 2.75 A 2.75 2.75 0 0 0 0.0014723844399942 2.8399774777599 L 2.75 2.75 L 0 2.75" fill="#000"/><path d="M 0.0014723844399942 2.8399774777599 A 2.75 2.75 0 0 0 0.0058879610938405 2.9298586053829 L 2.75 2.75 L 0.0014723844399942 2.8399774777599" fill="#fff"/><path d="M 0.0058879610938405 2.9298586053829 A 2.75 2.75 0 0 0 0.013242001651459 3.0195471359063 L 2.75 2.75 L 0.0058879610938405 2.9298586053829" fill="#000"/><path d="M 0.013242001651459 3.0195471359063 A 2.75 2.75 0 0 0 0.023526631222021 3.1089470286051 L 2.75 2.75 L 0.013242001651459 3.0195471359063" fill="#fff"/><path d="M 0.023526631222021 3.1089470286051 A 2.75 2.75 0 0 0 0.036730836766583 3.1979625518351 L 2.75 2.75 L 0.023526631222021 3.1089470286051" fill="#000"/><path d="M 0.036730836766583 3.1979625518351 A 2.75 2.75 0 0 0 0.052840478891116 3.2864983855444 L 2.75 2.75 L 0.036730836766583 3.1979625518351" fill="#fff"/><path d="M 0.052840478891116 3.2864983855444 A 2.75 2.75 0 0 0 0.071838306987333 3.3744597233445 L 2.75 2.75 L 0.052840478891116 3.2864983855444" fill="#000"/><path d="M 0.071838306987333 3.3744597233445 A 2.75 2.75 0 0 0 0.093703977705062 3.4617523740319 L 2.75 2.75 L 0.071838306987333 3.3744597233445" fill="#fff"/><path d="M 0.093703977705062 3.4617523740319 A 2.75 2.75 0 0 0 0.11841407673643 3.5482828624498 L 2.75 2.75 L 0.093703977705062 3.4617523740319" fill="#000"/><path d="M 0.11841407673643 3.5482828624498 A 2.75 2.75 0 0 0 0.14594214388846 3.6339585295837 L 2.75 2.75 L 0.11841407673643 3.5482828624498" fill="#fff"/><path d="M 0.14594214388846 3.6339585295837 A 2.75 2.75 0 0 0 0.17625870141735 3.7186876317834 L 2.75 2.75 L 0.14594214388846 3.6339585295837" fill="#000"/><path d="M 0.17625870141735 3.7186876317834 A 2.75 2.75 0 0 0 0.20933128559396 3.802379439004 L 2.75 2.75 L 0.17625870141735 3.7186876317834" fill="#fff"/><path d="M 0.20933128559396 3.802379439004 A 2.75 2.75 0 0 0 0.24512448146677 3.8849443319621 L 2.75 2.75 L 0.20933128559396 3.802379439004" fill="#000"/><path d="M 0.24512448146677 3.8849443319621 A 2.75 2.75 0 0 0 0.28359996078511 3.9662938981023 L 2.75 2.75 L 0.24512448146677 3.8849443319621" fill="#fff"/><path d="M 0.28359996078511 3.9662938981023 A 2.75 2.75 0 0 0 0.32471652304202 4.0463410262715 L 2.75 2.75 L 0.28359996078511 3.9662938981023" fill="#000"/><path d="M 0.32471652304202 4.0463410262715 A 2.75 2.75 0 0 0 0.36843013959279 4.125 L 2.75 2.75 L 0.32471652304202 4.0463410262715" fill="#fff"/><path d="M 0.36843013959279 4.125 A 2.75 2.75 0 0 0 0.41469400080191 4.2021865892885 L 2.75 2.75 L 0.36843013959279 4.125" fill="#000"/><path d="M 0.41469400080191 4.2021865892885 A 2.75 2.75 0 0 0 0.463458566168 4.2778181408039 L 2.75 2.75 L 0.41469400080191 4.2021865892885" fill="#fff"/><path d="M 0.463458566168 4.2778181408039 A 2.75 2.75 0 0 0 0.51467161737306 4.3518136663865 L 2.75 2.75 L 0.463458566168 4.2778181408039" fill="#000"/><path d="M 0.51467161737306 4.3518136663865 A 2.75 2.75 0 0 0 0.5682783141991 4.424093929774 L 2.75 2.75 L 0.51467161737306 4.3518136663865" fill="#fff"/><path d="M 0.5682783141991 4.424093929774 A 2.75 2.75 0 0 0 0.62422125325247 4.49458153145 L 2.75 2.75 L 0.5682783141991 4.424093929774" fill="#000"/><path d="M 0.62422125325247 4.49458153145 A 2.75 2.75 0 0 0 0.68244052943281 4.5632009915252 L 2.75 2.75 L 0.62422125325247 4.49458153145" fill="#fff"/><path d="M 0.68244052943281 4.5632009915252 A 2.75 2.75 0 0 0 0.74287380008095 4.6298788305629 L 2.75 2.75 L 0.68244052943281 4.5632009915252" fill="#000"/><path d="M 0.74287380008095 4.6298788305629 A 2.75 2.75 0 0 0 0.80545635173699 4.694543648263 L 2.75 2.75 L 0.74287380008095 4.6298788305629" fill="#fff"/><path d="M 0.80545635173699 4.694543648263 A 2.75 2.75 0 0 0 0.8701211694371 4.757126199919 L 2.75 2.75 L 0.80545635173699 4.694543648263" fill="#000"/><path d="M 0.8701211694371 4.757126199919 A 2.75 2.75 0 0 0 0.93679900847481 4.8175594705672 L 2.75 2.75 L 0.8701211694371 4.757126199919" fill="#fff"/><path d="M 0.93679900847481 4.8175594705672 A 2.75 2.75 0 0 0 1.00541846855 4.8757787467475 L 2.75 2.75 L 0.93679900847481 4.8175594705672" fill="#000"/><path d="M 1.00541846855 4.8757787467475 A 2.75 2.75 0 0 0 1.075906070226 4.9317216858009 L 2.75 2.75 L 1.00541846855 4.8757787467475" fill="#fff"/><path d="M 1.075906070226 4.9317216858009 A 2.75 2.75 0 0 0 1.1481863336135 4.9853283826269 L 2.75 2.75 L 1.075906070226 4.9317216858009" fill="#000"/><path d="M 1.1481863336135 4.9853283826269 A 2.75 2.75 0 0 0 1.2221818591961 5.036541433832 L 2.75 2.75 L 1.1481863336135 4.9853283826269" fill="#fff"/><path d="M 1.2221818591961 5.036541433832 A 2.75 2.75 0 0 0 1.2978134107115 5.0853059991981 L 2.75 2.75 L 1.2221818591961 5.036541433832" fill="#000"/><path d="M 1.2978134107115 5.0853059991981 A 2.75 2.75 0 0 0 1.375 5.1315698604072 L 2.75 2.75 L 1.2978134107115 5.0853059991981" fill="#fff"/><path d="M 1.375 5.1315698604072 A 2.75 2.75 0 0 0 1.4536589737285 5.175283476958 L 2.75 2.75 L 1.375 5.1315698604072" fill="#000"/><path d="M 1.4536589737285 5.175283476958 A 2.75 2.75 0 0 0 1.5337061018977 5.2164000392149 L 2.75 2.75 L 1.4536589737285 5.175283476958" fill="#fff"/><path d="M 1.5337061018977 5.2164000392149 A 2.75 2.75 0 0 0 1.6150556680379 5.2548755185332 L 2.75 2.75 L 1.5337061018977 5.2164000392149" fill="#000"/><path d="M 1.6150556680379 5.2548755185332 A 2.75 2.75 0 0 0 1.697620560996 5.290668714406 L 2.75 2.75 L 1.6150556680379 5.2548755185332" fill="#fff"/><path d="M 1.697620560996 5.290668714406 A 2.75 2.75 0 0 0 1.7813123682166 5.3237412985826 L 2.75 2.75 L 1.697620560996 5.290668714406" fill="#000"/><path d="M 1.7813123682166 5.3237412985826 A 2.75 2.75 0 0 0 1.8660414704163 5.3540578561115 L 2.75 2.75 L 1.7813123682166 5.3237412985826" fill="#fff"/><path d="M 1.8660414704163 5.3540578561115 A 2.75 2.75 0 0 0 1.9517171375502 5.3815859232636 L 2.75 2.75 L 1.8660414704163 5.3540578561115" fill="#000"/><path d="M 1.9517171375502 5.3815859232636 A 2.75 2.75 0 0 0 2.0382476259681 5.4062960222949 L 2.75 2.75 L 1.9517171375502 5.3815859232636" fill="#fff"/><path d="M 2.0382476259681 5.4062960222949 A 2.75 2.75 0 0 0 2.1255402766555 5.4281616930127 L 2.75 2.75 L 2.0382476259681 5.4062960222949" fill="#000"/><path d="M 2.1255402766555 5.4281616930127 A 2.75 2.75 0 0 0 2.2135016144556 5.4471595211089 L 2.75 2.75 L 2.1255402766555 5.4281616930127" fill="#fff"/><path d="M 2.2135016144556 5.4471595211089 A 2.75 2.75 0 0 0 2.3020374481649 5.4632691632334 L 2.75 2.75 L 2.2135016144556 5.4471595211089" fill="#000"/><path d="M 2.3020374481649 5.4632691632334 A 2.75 2.75 0 0 0 2.3910529713949 5.476473368778 L 2.75 2.75 L 2.3020374481649 5.4632691632334" fill="#fff"/><path d="M 2.3910529713949 5.476473368778 A 2.75 2.75 0 0 0 2.4804528640937 5.4867579983485 L 2.75 2.75 L 2.3910529713949 5.476473368778" fill="#000"/><path d="M 2.4804528640937 5.4867579983485 A 2.75 2.75 0 0 0 2.5701413946171 5.4941120389062 L 2.75 2.75 L 2.4804528640937 5.4867579983485" fill="#fff"/><path d="M 2.5701413946171 5.4941120389062 A 2.75 2.75 0 0 0 2.6600225222401 5.49852761556 L 2.75 2.75 L 2.5701413946171 5.4941120389062" fill="#000"/><path d="M 2.6600225222401 5.49852761556 A 2.75 2.75 0 0 0 2.75 5.5 L 2.75 2.75 L 2.6600225222401 5.49852761556" fill="#fff"/><path d="M 2.75 5.5 A 2.75 2.75 0 0 0 2.8399774777599 5.49852761556 L 2.75 2.75 L 2.75 5.5" fill="#000"/><path d="M 2.8399774777599 5.49852761556 A 2.75 2.75 0 0 0 2.9298586053829 5.4941120389062 L 2.75 2.75 L 2.8399774777599 5.49852761556" fill="#fff"/><path d="M 2.9298586053829 5.4941120389062 A 2.75 2.75 0 0 0 3.0195471359063 5.4867579983485 L 2.75 2.75 L 2.9298586053829 5.4941120389062" fill="#000"/><path d="M 3.0195471359063 5.4867579983485 A 2.75 2.75 0 0 0 3.1089470286051 5.476473368778 L 2.75 2.75 L 3.0195471359063 5.4867579983485" fill="#fff"/><path d="M 3.1089470286051 5.476473368778 A 2.75 2.75 0 0 0 3.1979625518351 5.4632691632334 L 2.75 2.75 L 3.1089470286051 5.476473368778" fill="#000"/><path d="M 3.1979625518351 5.4632691632334 A 2.75 2.75 0 0 0 3.2864983855444 5.4471595211089 L 2.75 2.75 L 3.1979625518351 5.4632691632334" fill="#fff"/><path d="M 3.2864983855444 5.4471595211089 A 2.75 2.75 0 0 0 3.3744597233445 5.4281616930127 L 2.75 2.75 L 3.2864983855444 5.4471595211089" fill="#000"/><path d="M 3.3744597233445 5.4281616930127 A 2.75 2.75 0 0 0 3.4617523740319 5.4062960222949 L 2.75 2.75 L 3.3744597233445 5.4281616930127" fill="#fff"/><path d="M 3.4617523740319 5.4062960222949 A 2.75 2.75 0 0 0 3.5482828624498 5.3815859232636 L 2.75 2.75 L 3.4617523740319 5.4062960222949" fill="#000"/><path d="M 3.5482828624498 5.3815859232636 A 2.75 2.75 0 0 0 3.6339585295837 5.3540578561115 L 2.75 2.75 L 3.5482828624498 5.3815859232636" fill="#fff"/><path d="M 3.6339585295837 5.3540578561115 A 2.75 2.75 0 0 0 3.7186876317834 5.3237412985826 L 2.75 2.75 L 3.6339585295837 5.3540578561115" fill="#000"/><path d="M 3.7186876317834 5.3237412985826 A 2.75 2.75 0 0 0 3.802379439004 5.290668714406 L 2.75 2.75 L 3.7186876317834 5.3237412985826" fill="#fff"/><path d="M 3.802379439004 5.290668714406 A 2.75 2.75 0 0 0 3.8849443319621 5.2548755185332 L 2.75 2.75 L 3.802379439004 5.290668714406" fill="#000"/><path d="M 3.8849443319621 5.2548755185332 A 2.75 2.75 0 0 0 3.9662938981023 5.2164000392149 L 2.75 2.75 L 3.8849443319621 5.2548755185332" fill="#fff"/><path d="M 3.9662938981023 5.2164000392149 A 2.75 2.75 0 0 0 4.0463410262715 5.175283476958 L 2.75 2.75 L 3.9662938981023 5.2164000392149" fill="#000"/><path d="M 4.0463410262715 5.175283476958 A 2.75 2.75 0 0 0 4.125 5.1315698604072 L 2.75 2.75 L 4.0463410262715 5.175283476958" fill="#fff"/><path d="M 4.125 5.1315698604072 A 2.75 2.75 0 0 0 4.2021865892885 5.0853059991981 L 2.75 2.75 L 4.125 5.1315698604072" fill="#000"/><path d="M 4.2021865892885 5.0853059991981 A 2.75 2.75 0 0 0 4.2778181408039 5.036541433832 L 2.75 2.75 L 4.2021865892885 5.0853059991981" fill="#fff"/><path d="M 4.2778181408039 5.036541433832 A 2.75 2.75 0 0 0 4.3518136663865 4.9853283826269 L 2.75 2.75 L 4.2778181408039 5.036541433832" fill="#000"/><path d="M 4.3518136663865 4.9853283826269 A 2.75 2.75 0 0 0 4.424093929774 4.9317216858009 L 2.75 2.75 L 4.3518136663865 4.9853283826269" fill="#fff"/><path d="M 4.424093929774 4.9317216858009 A 2.75 2.75 0 0 0 4.49458153145 4.8757787467475 L 2.75 2.75 L 4.424093929774 4.9317216858009" fill="#000"/><path d="M 4.49458153145 4.8757787467475 A 2.75 2.75 0 0 0 4.5632009915252 4.8175594705672 L 2.75 2.75 L 4.49458153145 4.8757787467475" fill="#fff"/><path d="M 4.5632009915252 4.8175594705672 A 2.75 2.75 0 0 0 4.6298788305629 4.757126199919 L 2.75 2.75 L 4.5632009915252 4.8175594705672" fill="#000"/><path d="M 4.6298788305629 4.757126199919 A 2.75 2.75 0 0 0 4.694543648263 4.694543648263 L 2.75 2.75 L 4.6298788305629 4.757126199919" fill="#fff"/><path d="M 4.694543648263 4.694543648263 A 2.75 2.75 0 0 0 4.757126199919 4.6298788305629 L 2.75 2.75 L 4.694543648263 4.694543648263" fill="#000"/><path d="M 4.757126199919 4.6298788305629 A 2.75 2.75 0 0 0 4.8175594705672 4.5632009915252 L 2.75 2.75 L 4.757126199919 4.6298788305629" fill="#fff"/><path d="M 4.8175594705672 4.5632009915252 A 2.75 2.75 0 0 0 4.8757787467475 4.49458153145 L 2.75 2.75 L 4.8175594705672 4.5632009915252" fill="#000"/><path d="M 4.8757787467475 4.49458153145 A 2.75 2.75 0 0 0 4.9317216858009 4.424093929774 L 2.75 2.75 L 4.8757787467475 4.49458153145" fill="#fff"/><path d="M 4.9317216858009 4.424093929774 A 2.75 2.75 0 0 0 4.9853283826269 4.3518136663865 L 2.75 2.75 L 4.9317216858009 4.424093929774" fill="#000"/><path d="M 4.9853283826269 4.3518136663865 A 2.75 2.75 0 0 0 5.036541433832 4.2778181408039 L 2.75 2.75 L 4.9853283826269 4.3518136663865" fill="#fff"/><path d="M 5.036541433832 4.2778181408039 A 2.75 2.75 0 0 0 5.0853059991981 4.2021865892885 L 2.75 2.75 L 5.036541433832 4.2778181408039" fill="#000"/><path d="M 5.0853059991981 4.2021865892885 A 2.75 2.75 0 0 0 5.1315698604072 4.125 L 2.75 2.75 L 5.0853059991981 4.2021865892885" fill="#fff"/><path d="M 5.1315698604072 4.125 A 2.75 2.75 0 0 0 5.175283476958 4.0463410262715 L 2.75 2.75 L 5.1315698604072 4.125" fill="#000"/><path d="M 5.175283476958 4.0463410262715 A 2.75 2.75 0 0 0 5.2164000392149 3.9662938981023 L 2.75 2.75 L 5.175283476958 4.0463410262715" fill="#fff"/><path d="M 5.2164000392149 3.9662938981023 A 2.75 2.75 0 0 0 5.2548755185332 3.8849443319621 L 2.75 2.75 L 5.2164000392149 3.9662938981023" fill="#000"/><path d="M 5.2548755185332 3.8849443319621 A 2.75 2.75 0 0 0 5.290668714406 3.802379439004 L 2.75 2.75 L 5.2548755185332 3.8849443319621" fill="#fff"/><path d="M 5.290668714406 3.802379439004 A 2.75 2.75 0 0 0 5.3237412985826 3.7186876317834 L 2.75 2.75 L 5.290668714406 3.802379439004" fill="#000"/><path d="M 5.3237412985826 3.7186876317834 A 2.75 2.75 0 0 0 5.3540578561115 3.6339585295837 L 2.75 2.75 L 5.3237412985826 3.7186876317834" fill="#fff"/><path d="M 5.3540578561115 3.6339585295837 A 2.75 2.75 0 0 0 5.3815859232636 3.5482828624498 L 2.75 2.75 L 5.3540578561115 3.6339585295837" fill="#000"/><path d="M 5.3815859232636 3.5482828624498 A 2.75 2.75 0 0 0 5.4062960222949 3.4617523740319 L 2.75 2.75 L 5.3815859232636 3.5482828624498" fill="#fff"/><path d="M 5.4062960222949 3.4617523740319 A 2.75 2.75 0 0 0 5.4281616930127 3.3744597233445 L 2.75 2.75 L 5.4062960222949 3.4617523740319" fill="#000"/><path d="M 5.4281616930127 3.3744597233445 A 2.75 2.75 0 0 0 5.4471595211089 3.2864983855444 L 2.75 2.75 L 5.4281616930127 3.3744597233445" fill="#fff"/><path d="M 5.4471595211089 3.2864983855444 A 2.75 2.75 0 0 0 5.4632691632334 3.1979625518351 L 2.75 2.75 L 5.4471595211089 3.2864983855444" fill="#000"/><path d="M 5.4632691632334 3.1979625518351 A 2.75 2.75 0 0 0 5.476473368778 3.1089470286051 L 2.75 2.75 L 5.4632691632334 3.1979625518351" fill="#fff"/><path d="M 5.476473368778 3.1089470286051 A 2.75 2.75 0 0 0 5.4867579983485 3.0195471359063 L 2.75 2.75 L 5.476473368778 3.1089470286051" fill="#000"/><path d="M 5.4867579983485 3.0195471359063 A 2.75 2.75 0 0 0 5.4941120389062 2.9298586053829 L 2.75 2.75 L 5.4867579983485 3.0195471359063" fill="#fff"/><path d="M 5.4941120389062 2.9298586053829 A 2.75 2.75 0 0 0 5.49852761556 2.8399774777599 L 2.75 2.75 L 5.4941120389062 2.9298586053829" fill="#000"/><path d="M 5.49852761556 2.8399774777599 A 2.75 2.75 0 0 0 5.5 2.75 L 2.75 2.75 L 5.49852761556 2.8399774777599" fill="#fff"/><path d="M 5.3996452654603 2.7066414111898 A 2.65 2.65 0 0 0 5.3968079589437 2.6199706630323 L 2.75 2.75 L 5.3996452654603 2.7066414111898" fill="#000"/><path d="M 5.3968079589437 2.6199706630323 A 2.65 2.65 0 0 0 5.3911363841693 2.5334391535458 L 2.75 2.75 L 5.3968079589437 2.6199706630323" fill="#fff"/><path d="M 5.3911363841693 2.5334391535458 A 2.65 2.65 0 0 0 5.3826366144015 2.4471395428379 L 2.75 2.75 L 5.3911363841693 2.5334391535458" fill="#000"/><path d="M 5.3826366144015 2.4471395428379 A 2.65 2.65 0 0 0 5.3713177514067 2.3611642426933 L 2.75 2.75 L 5.3826366144015 2.4471395428379" fill="#fff"/><path d="M 5.3713177514067 2.3611642426933 A 2.65 2.65 0 0 0 5.3571919157068 2.2756053176169 L 2.75 2.75 L 5.3713177514067 2.3611642426933" fill="#000"/><path d="M 5.3571919157068 2.2756053176169 A 2.65 2.65 0 0 0 5.3402742336005 2.1905543862487 L 2.75 2.75 L 5.3571919157068 2.2756053176169" fill="#fff"/><path d="M 5.3402742336005 2.1905543862487 A 2.65 2.65 0 0 0 5.3205828209655 2.1061025232564 L 2.75 2.75 L 5.3402742336005 2.1905543862487" fill="#000"/><path d="M 5.3205828209655 2.1061025232564 A 2.65 2.65 0 0 0 5.2981387638598 2.0223401618099 L 2.75 2.75 L 5.3205828209655 2.1061025232564" fill="#fff"/><path d="M 5.2981387638598 2.0223401618099 A 2.65 2.65 0 0 0 5.2729660959419 1.9393569967441 L 2.75 2.75 L 5.2981387638598 2.0223401618099" fill="#000"/><path d="M 5.2729660959419 1.9393569967441 A 2.65 2.65 0 0 0 5.245091772735 1.8572418885106 L 2.75 2.75 L 5.2729660959419 1.9393569967441" fill="#fff"/><path d="M 5.245091772735 1.8572418885106 A 2.65 2.65 0 0 0 5.2145456427626 1.776082768024 L 2.75 2.75 L 5.245091772735 1.8572418885106" fill="#000"/><path d="M 5.2145456427626 1.776082768024 A 2.65 2.65 0 0 0 5.1813604155859 1.6959665425034 L 2.75 2.75 L 5.2145456427626 1.776082768024" fill="#fff"/><path d="M 5.1813604155859 1.6959665425034 A 2.65 2.65 0 0 0 5.1455716267771 1.6169790024098 L 2.75 2.75 L 5.1813604155859 1.6959665425034" fill="#000"/><path d="M 5.1455716267771 1.6169790024098 A 2.65 2.65 0 0 0 5.1072175998679 1.5392047295794 L 2.75 2.75 L 5.1455716267771 1.6169790024098" fill="#fff"/><path d="M 5.1072175998679 1.5392047295794 A 2.65 2.65 0 0 0 5.0663394053109 1.4627270066517 L 2.75 2.75 L 5.1072175998679 1.5392047295794" fill="#000"/><path d="M 5.0663394053109 1.4627270066517 A 2.65 2.65 0 0 0 5.0229808165007 1.387627727888 L 2.75 2.75 L 5.0663394053109 1.4627270066517" fill="#fff"/><path d="M 5.0229808165007 1.387627727888 A 2.65 2.65 0 0 0 4.9771882629003 1.3139873114769 L 2.75 2.75 L 5.0229808165007 1.387627727888" fill="#000"/><path d="M 4.9771882629003 1.3139873114769 A 2.65 2.65 0 0 0 4.9290107803229 1.2418846134209 L 2.75 2.75 L 4.9771882629003 1.3139873114769" fill="#fff"/><path d="M 4.9290107803229 1.2418846134209 A 2.65 2.65 0 0 0 4.8784999584237 1.1713968430951 L 2.75 2.75 L 4.9290107803229 1.2418846134209" fill="#000"/><path d="M 4.8784999584237 1.1713968430951 A 2.65 2.65 0 0 0 4.8257098854559 1.1025994805693 L 2.75 2.75 L 4.8784999584237 1.1713968430951" fill="#fff"/><path d="M 4.8257098854559 1.1025994805693 A 2.65 2.65 0 0 0 4.7706970903519 1.0355661957826 L 2.75 2.75 L 4.8257098854559 1.1025994805693" fill="#000"/><path d="M 4.7706970903519 1.0355661957826 A 2.65 2.65 0 0 0 4.7135204821906 0.9703687696554 L 2.75 2.75 L 4.7706970903519 1.0355661957826" fill="#fff"/><path d="M 4.7135204821906 0.9703687696554 A 2.65 2.65 0 0 0 4.6542412871162 0.90707701722453 L 2.75 2.75 L 4.7135204821906 0.9703687696554" fill="#000"/><path d="M 4.6542412871162 0.90707701722453 A 2.65 2.65 0 0 0 4.5929229827755 0.8457587128838 L 2.75 2.75 L 4.6542412871162 0.90707701722453" fill="#fff"/><path d="M 4.5929229827755 0.8457587128838 A 2.65 2.65 0 0 0 4.5296312303446 0.78647951780936 L 2.75 2.75 L 4.5929229827755 0.8457587128838" fill="#000"/><path d="M 4.5296312303446 0.78647951780936 A 2.65 2.65 0 0 0 4.4644338042174 0.72930290964807 L 2.75 2.75 L 4.5296312303446 0.78647951780936" fill="#fff"/><path d="M 4.4644338042174 0.72930290964807 A 2.65 2.65 0 0 0 4.3974005194307 0.67429011454408 L 2.75 2.75 L 4.4644338042174 0.72930290964807" fill="#000"/><path d="M 4.3974005194307 0.67429011454408 A 2.65 2.65 0 0 0 4.3286031569049 0.62150004157629 L 2.75 2.75 L 4.3974005194307 0.67429011454408" fill="#fff"/><path d="M 4.3286031569049 0.62150004157629 A 2.65 2.65 0 0 0 4.2581153865791 0.5709892196771 L 2.75 2.75 L 4.3286031569049 0.62150004157629" fill="#000"/><path d="M 4.2581153865791 0.5709892196771 A 2.65 2.65 0 0 0 4.1860126885231 0.52281173709974 L 2.75 2.75 L 4.2581153865791 0.5709892196771" fill="#fff"/><path d="M 4.1860126885231 0.52281173709974 A 2.65 2.65 0 0 0 4.112372272112 0.47701918349928 L 2.75 2.75 L 4.1860126885231 0.52281173709974" fill="#000"/><path d="M 4.112372272112 0.47701918349928 A 2.65 2.65 0 0 0 4.0372729933483 0.43366059468909 L 2.75 2.75 L 4.112372272112 0.47701918349928" fill="#fff"/><path d="M 4.0372729933483 0.43366059468909 A 2.65 2.65 0 0 0 3.9607952704206 0.39278240013208 L 2.75 2.75 L 4.0372729933483 0.43366059468909" fill="#000"/><path d="M 3.9607952704206 0.39278240013208 A 2.65 2.65 0 0 0 3.8830209975902 0.35442837322288 L 2.75 2.75 L 3.9607952704206 0.39278240013208" fill="#fff"/><path d="M 3.8830209975902 0.35442837322288 A 2.65 2.65 0 0 0 3.8040334574966 0.31863958441415 L 2.75 2.75 L 3.8830209975902 0.35442837322288" fill="#000"/><path d="M 3.8040334574966 0.31863958441415 A 2.65 2.65 0 0 0 3.723917231976 0.28545435723737 L 2.75 2.75 L 3.8040334574966 0.31863958441415" fill="#fff"/><path d="M 3.723917231976 0.28545435723737 A 2.65 2.65 0 0 0 3.6427581114894 0.254908227265 L 2.75 2.75 L 3.723917231976 0.28545435723737" fill="#000"/><path d="M 3.6427581114894 0.254908227265 A 2.65 2.65 0 0 0 3.5606430032559 0.2270339040581 L 2.75 2.75 L 3.6427581114894 0.254908227265" fill="#fff"/><path d="M 3.5606430032559 0.2270339040581 A 2.65 2.65 0 0 0 3.4776598381901 0.20186123614015 L 2.75 2.75 L 3.5606430032559 0.2270339040581" fill="#000"/><path d="M 3.4776598381901 0.20186123614015 A 2.65 2.65 0 0 0 3.3938974767436 0.17941717903446 L 2.75 2.75 L 3.4776598381901 0.20186123614015" fill="#fff"/><path d="M 3.3938974767436 0.17941717903446 A 2.65 2.65 0 0 0 3.3094456137513 0.15972576639953 L 2.75 2.75 L 3.3938974767436 0.17941717903446" fill="#000"/><path d="M 3.3094456137513 0.15972576639953 A 2.65 2.65 0 0 0 3.2243946823831 0.14280808429324 L 2.75 2.75 L 3.3094456137513 0.15972576639953" fill="#fff"/><path d="M 3.2243946823831 0.14280808429324 A 2.65 2.65 0 0 0 3.1388357573067 0.12868224859333 L 2.75 2.75 L 3.2243946823831 0.14280808429324" fill="#000"/><path d="M 3.1388357573067 0.12868224859333 A 2.65 2.65 0 0 0 3.0528604571621 0.11736338559847 L 2.75 2.75 L 3.1388357573067 0.12868224859333" fill="#fff"/><path d="M 3.0528604571621 0.11736338559847 A 2.65 2.65 0 0 0 2.9665608464542 0.10886361583067 L 2.75 2.75 L 3.0528604571621 0.11736338559847" fill="#000"/><path d="M 2.9665608464542 0.10886361583067 A 2.65 2.65 0 0 0 2.8800293369677 0.10319204105629 L 2.75 2.75 L 2.9665608464542 0.10886361583067" fill="#fff"/><path d="M 2.8800293369677 0.10319204105629 A 2.65 2.65 0 0 0 2.7933585888102 0.10035473453966 L 2.75 2.75 L 2.8800293369677 0.10319204105629" fill="#000"/><path d="M 2.7933585888102 0.10035473453966 A 2.65 2.65 0 0 0 2.7066414111898 0.10035473453966 L 2.75 2.75 L 2.7933585888102 0.10035473453966" fill="#fff"/><path d="M 2.7066414111898 0.10035473453966 A 2.65 2.65 0 0 0 2.6199706630323 0.10319204105629 L 2.75 2.75 L 2.7066414111898 0.10035473453966" fill="#000"/><path d="M 2.6199706630323 0.10319204105629 A 2.65 2.65 0 0 0 2.5334391535458 0.10886361583067 L 2.75 2.75 L 2.6199706630323 0.10319204105629" fill="#fff"/><path d="M 2.5334391535458 0.10886361583067 A 2.65 2.65 0 0 0 2.4471395428379 0.11736338559847 L 2.75 2.75 L 2.5334391535458 0.10886361583067" fill="#000"/><path d="M 2.4471395428379 0.11736338559847 A 2.65 2.65 0 0 0 2.3611642426933 0.12868224859333 L 2.75 2.75 L 2.4471395428379 0.11736338559847" fill="#fff"/><path d="M 2.3611642426933 0.12868224859333 A 2.65 2.65 0 0 0 2.2756053176169 0.14280808429324 L 2.75 2.75 L 2.3611642426933 0.12868224859333" fill="#000"/><path d="M 2.2756053176169 0.14280808429324 A 2.65 2.65 0 0 0 2.1905543862487 0.15972576639953 L 2.75 2.75 L 2.2756053176169 0.14280808429324" fill="#fff"/><path d="M 2.1905543862487 0.15972576639953 A 2.65 2.65 0 0 0 2.1061025232564 0.17941717903446 L 2.75 2.75 L 2.1905543862487 0.15972576639953" fill="#000"/><path d="M 2.1061025232564 0.17941717903446 A 2.65 2.65 0 0 0 2.0223401618099 0.20186123614015 L 2.75 2.75 L 2.1061025232564 0.17941717903446" fill="#fff"/><path d="M 2.0223401618099 0.20186123614015 A 2.65 2.65 0 0 0 1.9393569967441 0.2270339040581 L 2.75 2.75 L 2.0223401618099 0.20186123614015" fill="#000"/><path d="M 1.9393569967441 0.2270339040581 A 2.65 2.65 0 0 0 1.8572418885106 0.25490822726499 L 2.75 2.75 L 1.9393569967441 0.2270339040581" fill="#fff"/><path d="M 1.8572418885106 0.25490822726499 A 2.65 2.65 0 0 0 1.776082768024 0.28545435723737 L 2.75 2.75 L 1.8572418885106 0.25490822726499" fill="#000"/><path d="M 1.776082768024 0.28545435723737 A 2.65 2.65 0 0 0 1.6959665425034 0.31863958441415 L 2.75 2.75 L 1.776082768024 0.28545435723737" fill="#fff"/><path d="M 1.6959665425034 0.31863958441415 A 2.65 2.65 0 0 0 1.6169790024098 0.35442837322287 L 2.75 2.75 L 1.6959665425034 0.31863958441415" fill="#000"/><path d="M 1.6169790024098 0.35442837322287 A 2.65 2.65 0 0 0 1.5392047295794 0.39278240013208 L 2.75 2.75 L 1.6169790024098 0.35442837322287" fill="#fff"/><path d="M 1.5392047295794 0.39278240013208 A 2.65 2.65 0 0 0 1.4627270066517 0.43366059468909 L 2.75 2.75 L 1.5392047295794 0.39278240013208" fill="#000"/><path d="M 1.4627270066517 0.43366059468909 A 2.65 2.65 0 0 0 1.387627727888 0.47701918349928 L 2.75 2.75 L 1.4627270066517 0.43366059468909" fill="#fff"/><path d="M 1.387627727888 0.47701918349928 A 2.65 2.65 0 0 0 1.3139873114769 0.52281173709974 L 2.75 2.75 L 1.387627727888 0.47701918349928" fill="#000"/><path d="M 1.3139873114769 0.52281173709974 A 2.65 2.65 0 0 0 1.2418846134209 0.5709892196771 L 2.75 2.75 L 1.3139873114769 0.52281173709974" fill="#fff"/><path d="M 1.2418846134209 0.5709892196771 A 2.65 2.65 0 0 0 1.1713968430951 0.62150004157629 L 2.75 2.75 L 1.2418846134209 0.5709892196771" fill="#000"/><path d="M 1.1713968430951 0.62150004157629 A 2.65 2.65 0 0 0 1.1025994805693 0.67429011454408 L 2.75 2.75 L 1.1713968430951 0.62150004157629" fill="#fff"/><path d="M 1.1025994805693 0.67429011454408 A 2.65 2.65 0 0 0 1.0355661957826 0.72930290964807 L 2.75 2.75 L 1.1025994805693 0.67429011454408" fill="#000"/><path d="M 1.0355661957826 0.72930290964807 A 2.65 2.65 0 0 0 0.9703687696554 0.78647951780936 L 2.75 2.75 L 1.0355661957826 0.72930290964807" fill="#fff"/><path d="M 0.9703687696554 0.78647951780936 A 2.65 2.65 0 0 0 0.90707701722453 0.8457587128838 L 2.75 2.75 L 0.9703687696554 0.78647951780936" fill="#000"/><path d="M 0.90707701722453 0.8457587128838 A 2.65 2.65 0 0 0 0.8457587128838 0.90707701722453 L 2.75 2.75 L 0.90707701722453 0.8457587128838" fill="#fff"/><path d="M 0.8457587128838 0.90707701722453 A 2.65 2.65 0 0 0 0.78647951780936 0.9703687696554 L 2.75 2.75 L 0.8457587128838 0.90707701722453" fill="#000"/><path d="M 0.78647951780936 0.9703687696554 A 2.65 2.65 0 0 0 0.72930290964807 1.0355661957826 L 2.75 2.75 L 0.78647951780936 0.9703687696554" fill="#fff"/><path d="M 0.72930290964807 1.0355661957826 A 2.65 2.65 0 0 0 0.67429011454408 1.1025994805693 L 2.75 2.75 L 0.72930290964807 1.0355661957826" fill="#000"/><path d="M 0.67429011454408 1.1025994805693 A 2.65 2.65 0 0 0 0.62150004157629 1.1713968430951 L 2.75 2.75 L 0.67429011454408 1.1025994805693" fill="#fff"/><path d="M 0.62150004157629 1.1713968430951 A 2.65 2.65 0 0 0 0.5709892196771 1.2418846134209 L 2.75 2.75 L 0.62150004157629 1.1713968430951" fill="#000"/><path d="M 0.5709892196771 1.2418846134209 A 2.65 2.65 0 0 0 0.52281173709974 1.3139873114769 L 2.75 2.75 L 0.5709892196771 1.2418846134209" fill="#fff"/><path d="M 0.52281173709974 1.3139873114769 A 2.65 2.65 0 0 0 0.47701918349928 1.387627727888 L 2.75 2.75 L 0.52281173709974 1.3139873114769" fill="#000"/><path d="M 0.47701918349928 1.387627727888 A 2.65 2.65 0 0 0 0.43366059468909 1.4627270066517 L 2.75 2.75 L 0.47701918349928 1.387627727888" fill="#fff"/><path d="M 0.43366059468909 1.4627270066517 A 2.65 2.65 0 0 0 0.39278240013208 1.5392047295794 L 2.75 2.75 L 0.43366059468909 1.4627270066517" fill="#000"/><path d="M 0.39278240013208 1.5392047295794 A 2.65 2.65 0 0 0 0.35442837322288 1.6169790024098 L 2.75 2.75 L 0.39278240013208 1.5392047295794" fill="#fff"/><path d="M 0.35442837322288 1.6169790024098 A 2.65 2.65 0 0 0 0.31863958441415 1.6959665425034 L 2.75 2.75 L 0.35442837322288 1.6169790024098" fill="#000"/><path d="M 0.31863958441415 1.6959665425034 A 2.65 2.65 0 0 0 0.28545435723737 1.776082768024 L 2.75 2.75 L 0.31863958441415 1.6959665425034" fill="#fff"/><path d="M 0.28545435723737 1.776082768024 A 2.65 2.65 0 0 0 0.254908227265 1.8572418885106 L 2.75 2.75 L 0.28545435723737 1.776082768024" fill="#000"/><path d="M 0.254908227265 1.8572418885106 A 2.65 2.65 0 0 0 0.2270339040581 1.9393569967441 L 2.75 2.75 L 0.254908227265 1.8572418885106" fill="#fff"/><path d="M 0.2270339040581 1.9393569967441 A 2.65 2.65 0 0 0 0.20186123614015 2.0223401618099 L 2.75 2.75 L 0.2270339040581 1.9393569967441" fill="#000"/><path d="M 0.20186123614015 2.0223401618099 A 2.65 2.65 0 0 0 0.17941717903446 2.1061025232564 L 2.75 2.75 L 0.20186123614015 2.0223401618099" fill="#fff"/><path d="M 0.17941717903446 2.1061025232564 A 2.65 2.65 0 0 0 0.15972576639953 2.1905543862487 L 2.75 2.75 L 0.17941717903446 2.1061025232564" fill="#000"/><path d="M 0.15972576639953 2.1905543862487 A 2.65 2.65 0 0 0 0.14280808429324 2.2756053176169 L 2.75 2.75 L 0.15972576639953 2.1905543862487" fill="#fff"/><path d="M 0.14280808429324 2.2756053176169 A 2.65 2.65 0 0 0 0.12868224859333 2.3611642426933 L 2.75 2.75 L 0.14280808429324 2.2756053176169" fill="#000"/><path d="M 0.12868224859333 2.3611642426933 A 2.65 2.65 0 0 0 0.11736338559847 2.4471395428379 L 2.75 2.75 L 0.12868224859333 2.3611642426933" fill="#fff"/><path d="M 0.11736338559847 2.4471395428379 A 2.65 2.65 0 0 0 0.10886361583067 2.5334391535458 L 2.75 2.75 L 0.11736338559847 2.4471395428379" fill="#000"/><path d="M 0.10886361583067 2.5334391535458 A 2.65 2.65 0 0 0 0.10319204105629 2.6199706630323 L 2.75 2.75 L 0.10886361583067 2.5334391535458" fill="#fff"/><path d="M 0.10319204105629 2.6199706630323 A 2.65 2.65 0 0 0 0.10035473453966 2.7066414111898 L 2.75 2.75 L 0.10319204105629 2.6199706630323" fill="#000"/><path d="M 0.10035473453966 2.7066414111898 A 2.65 2.65 0 0 0 0.10035473453966 2.7933585888102 L 2.75 2.75 L 0.10035473453966 2.7066414111898" fill="#fff"/><path d="M 0.10035473453966 2.7933585888102 A 2.65 2.65 0 0 0 0.10319204105629 2.8800293369677 L 2.75 2.75 L 0.10035473453966 2.7933585888102" fill="#000"/><path d="M 0.10319204105629 2.8800293369677 A 2.65 2.65 0 0 0 0.10886361583067 2.9665608464542 L 2.75 2.75 L 0.10319204105629 2.8800293369677" fill="#fff"/><path d="M 0.10886361583067 2.9665608464542 A 2.65 2.65 0 0 0 0.11736338559847 3.0528604571621 L 2.75 2.75 L 0.10886361583067 2.9665608464542" fill="#000"/><path d="M 0.11736338559847 3.0528604571621 A 2.65 2.65 0 0 0 0.12868224859333 3.1388357573067 L 2.75 2.75 L 0.11736338559847 3.0528604571621" fill="#fff"/><path d="M 0.12868224859333 3.1388357573067 A 2.65 2.65 0 0 0 0.14280808429324 3.2243946823831 L 2.75 2.75 L 0.12868224859333 3.1388357573067" fill="#000"/><path d="M 0.14280808429324 3.2243946823831 A 2.65 2.65 0 0 0 0.15972576639953 3.3094456137513 L 2.75 2.75 L 0.14280808429324 3.2243946823831" fill="#fff"/><path d="M 0.15972576639953 3.3094456137513 A 2.65 2.65 0 0 0 0.17941717903446 3.3938974767436 L 2.75 2.75 L 0.15972576639953 3.3094456137513" fill="#000"/><path d="M 0.17941717903446 3.3938974767436 A 2.65 2.65 0 0 0 0.20186123614015 3.4776598381901 L 2.75 2.75 L 0.17941717903446 3.3938974767436" fill="#fff"/><path d="M 0.20186123614015 3.4776598381901 A 2.65 2.65 0 0 0 0.2270339040581 3.5606430032559 L 2.75 2.75 L 0.20186123614015 3.4776598381901" fill="#000"/><path d="M 0.2270339040581 3.5606430032559 A 2.65 2.65 0 0 0 0.25490822726499 3.6427581114894 L 2.75 2.75 L 0.2270339040581 3.5606430032559" fill="#fff"/><path d="M 0.25490822726499 3.6427581114894 A 2.65 2.65 0 0 0 0.28545435723737 3.723917231976 L 2.75 2.75 L 0.25490822726499 3.6427581114894" fill="#000"/><path d="M 0.28545435723737 3.723917231976 A 2.65 2.65 0 0 0 0.31863958441415 3.8040334574966 L 2.75 2.75 L 0.28545435723737 3.723917231976" fill="#fff"/><path d="M 0.31863958441415 3.8040334574966 A 2.65 2.65 0 0 0 0.35442837322287 3.8830209975902 L 2.75 2.75 L 0.31863958441415 3.8040334574966" fill="#000"/><path d="M 0.35442837322287 3.8830209975902 A 2.65 2.65 0 0 0 0.39278240013208 3.9607952704206 L 2.75 2.75 L 0.35442837322287 3.8830209975902" fill="#fff"/><path d="M 0.39278240013208 3.9607952704206 A 2.65 2.65 0 0 0 0.43366059468909 4.0372729933483 L 2.75 2.75 L 0.39278240013208 3.9607952704206" fill="#000"/><path d="M 0.43366059468909 4.0372729933483 A 2.65 2.65 0 0 0 0.47701918349928 4.112372272112 L 2.75 2.75 L 0.43366059468909 4.0372729933483" fill="#fff"/><path d="M 0.47701918349928 4.112372272112 A 2.65 2.65 0 0 0 0.52281173709974 4.1860126885231 L 2.75 2.75 L 0.47701918349928 4.112372272112" fill="#000"/><path d="M 0.52281173709974 4.1860126885231 A 2.65 2.65 0 0 0 0.5709892196771 4.2581153865791 L 2.75 2.75 L 0.52281173709974 4.1860126885231" fill="#fff"/><path d="M 0.5709892196771 4.2581153865791 A 2.65 2.65 0 0 0 0.62150004157629 4.3286031569049 L 2.75 2.75 L 0.5709892196771 4.2581153865791" fill="#000"/><path d="M 0.62150004157629 4.3286031569049 A 2.65 2.65 0 0 0 0.67429011454408 4.3974005194307 L 2.75 2.75 L 0.62150004157629 4.3286031569049" fill="#fff"/><path d="M 0.67429011454408 4.3974005194307 A 2.65 2.65 0 0 0 0.72930290964807 4.4644338042174 L 2.75 2.75 L 0.67429011454408 4.3974005194307" fill="#000"/><path d="M 0.72930290964807 4.4644338042174 A 2.65 2.65 0 0 0 0.78647951780936 4.5296312303446 L 2.75 2.75 L 0.72930290964807 4.4644338042174" fill="#fff"/><path d="M 0.78647951780936 4.5296312303446 A 2.65 2.65 0 0 0 0.8457587128838 4.5929229827755 L 2.75 2.75 L 0.78647951780936 4.5296312303446" fill="#000"/><path d="M 0.8457587128838 4.5929229827755 A 2.65 2.65 0 0 0 0.90707701722453 4.6542412871162 L 2.75 2.75 L 0.8457587128838 4.5929229827755" fill="#fff"/><path d="M 0.90707701722453 4.6542412871162 A 2.65 2.65 0 0 0 0.9703687696554 4.7135204821906 L 2.75 2.75 L 0.90707701722453 4.6542412871162" fill="#000"/><path d="M 0.9703687696554 4.7135204821906 A 2.65 2.65 0 0 0 1.0355661957826 4.7706970903519 L 2.75 2.75 L 0.9703687696554 4.7135204821906" fill="#fff"/><path d="M 1.0355661957826 4.7706970903519 A 2.65 2.65 0 0 0 1.1025994805693 4.8257098854559 L 2.75 2.75 L 1.0355661957826 4.7706970903519" fill="#000"/><path d="M 1.1025994805693 4.8257098854559 A 2.65 2.65 0 0 0 1.1713968430951 4.8784999584237 L 2.75 2.75 L 1.1025994805693 4.8257098854559" fill="#fff"/><path d="M 1.1713968430951 4.8784999584237 A 2.65 2.65 0 0 0 1.2418846134209 4.9290107803229 L 2.75 2.75 L 1.1713968430951 4.8784999584237" fill="#000"/><path d="M 1.2418846134209 4.9290107803229 A 2.65 2.65 0 0 0 1.3139873114769 4.9771882629003 L 2.75 2.75 L 1.2418846134209 4.9290107803229" fill="#fff"/><path d="M 1.3139873114769 4.9771882629003 A 2.65 2.65 0 0 0 1.387627727888 5.0229808165007 L 2.75 2.75 L 1.3139873114769 4.9771882629003" fill="#000"/><path d="M 1.387627727888 5.0229808165007 A 2.65 2.65 0 0 0 1.4627270066517 5.0663394053109 L 2.75 2.75 L 1.387627727888 5.0229808165007" fill="#fff"/><path d="M 1.4627270066517 5.0663394053109 A 2.65 2.65 0 0 0 1.5392047295794 5.1072175998679 L 2.75 2.75 L 1.4627270066517 5.0663394053109" fill="#000"/><path d="M 1.5392047295794 5.1072175998679 A 2.65 2.65 0 0 0 1.6169790024098 5.1455716267771 L 2.75 2.75 L 1.5392047295794 5.1072175998679" fill="#fff"/><path d="M 1.6169790024098 5.1455716267771 A 2.65 2.65 0 0 0 1.6959665425034 5.1813604155859 L 2.75 2.75 L 1.6169790024098 5.1455716267771" fill="#000"/><path d="M 1.6959665425034 5.1813604155859 A 2.65 2.65 0 0 0 1.776082768024 5.2145456427626 L 2.75 2.75 L 1.6959665425034 5.1813604155859" fill="#fff"/><path d="M 1.776082768024 5.2145456427626 A 2.65 2.65 0 0 0 1.8572418885106 5.245091772735 L 2.75 2.75 L 1.776082768024 5.2145456427626" fill="#000"/><path d="M 1.8572418885106 5.245091772735 A 2.65 2.65 0 0 0 1.9393569967441 5.2729660959419 L 2.75 2.75 L 1.8572418885106 5.245091772735" fill="#fff"/><path d="M 1.9393569967441 5.2729660959419 A 2.65 2.65 0 0 0 2.0223401618099 5.2981387638598 L 2.75 2.75 L 1.9393569967441 5.2729660959419" fill="#000"/><path d="M 2.0223401618099 5.2981387638598 A 2.65 2.65 0 0 0 2.1061025232564 5.3205828209655 L 2.75 2.75 L 2.0223401618099 5.2981387638598" fill="#fff"/><path d="M 2.1061025232564 5.3205828209655 A 2.65 2.65 0 0 0 2.1905543862487 5.3402742336005 L 2.75 2.75 L 2.1061025232564 5.3205828209655" fill="#000"/><path d="M 2.1905543862487 5.3402742336005 A 2.65 2.65 0 0 0 2.2756053176169 5.3571919157068 L 2.75 2.75 L 2.1905543862487 5.3402742336005" fill="#fff"/><path d="M 2.2756053176169 5.3571919157068 A 2.65 2.65 0 0 0 2.3611642426933 5.3713177514067 L 2.75 2.75 L 2.2756053176169 5.3571919157068" fill="#000"/><path d="M 2.3611642426933 5.3713177514067 A 2.65 2.65 0 0 0 2.4471395428379 5.3826366144015 L 2.75 2.75 L 2.3611642426933 5.3713177514067" fill="#fff"/><path d="M 2.4471395428379 5.3826366144015 A 2.65 2.65 0 0 0 2.5334391535458 5.3911363841693 L 2.75 2.75 L 2.4471395428379 5.3826366144015" fill="#000"/><path d="M 2.5334391535458 5.3911363841693 A 2.65 2.65 0 0 0 2.6199706630323 5.3968079589437 L 2.75 2.75 L 2.5334391535458 5.3911363841693" fill="#fff"/><path d="M 2.6199706630323 5.3968079589437 A 2.65 2.65 0 0 0 2.7066414111898 5.3996452654603 L 2.75 2.75 L 2.6199706630323 5.3968079589437" fill="#000"/><path d="M 2.7066414111898 5.3996452654603 A 2.65 2.65 0 0 0 2.7933585888102 5.3996452654603 L 2.75 2.75 L 2.7066414111898 5.3996452654603" fill="#fff"/><path d="M 2.7933585888102 5.3996452654603 A 2.65 2.65 0 0 0 2.8800293369677 5.3968079589437 L 2.75 2.75 L 2.7933585888102 5.3996452654603" fill="#000"/><path d="M 2.8800293369677 5.3968079589437 A 2.65 2.65 0 0 0 2.9665608464542 5.3911363841693 L 2.75 2.75 L 2.8800293369677 5.3968079589437" fill="#fff"/><path d="M 2.9665608464542 5.3911363841693 A 2.65 2.65 0 0 0 3.0528604571621 5.3826366144015 L 2.75 2.75 L 2.9665608464542 5.3911363841693" fill="#000"/><path d="M 3.0528604571621 5.3826366144015 A 2.65 2.65 0 0 0 3.1388357573067 5.3713177514067 L 2.75 2.75 L 3.0528604571621 5.3826366144015" fill="#fff"/><path d="M 3.1388357573067 5.3713177514067 A 2.65 2.65 0 0 0 3.2243946823831 5.3571919157068 L 2.75 2.75 L 3.1388357573067 5.3713177514067" fill="#000"/><path d="M 3.2243946823831 5.3571919157068 A 2.65 2.65 0 0 0 3.3094456137513 5.3402742336005 L 2.75 2.75 L 3.2243946823831 5.3571919157068" fill="#fff"/><path d="M 3.3094456137513 5.3402742336005 A 2.65 2.65 0 0 0 3.3938974767436 5.3205828209655 L 2.75 2.75 L 3.3094456137513 5.3402742336005" fill="#000"/><path d="M 3.3938974767436 5.3205828209655 A 2.65 2.65 0 0 0 3.4776598381901 5.2981387638598 L 2.75 2.75 L 3.3938974767436 5.3205828209655" fill="#fff"/><path d="M 3.4776598381901 5.2981387638598 A 2.65 2.65 0 0 0 3.5606430032559 5.2729660959419 L 2.75 2.75 L 3.4776598381901 5.2981387638598" fill="#000"/><path d="M 3.5606430032559 5.2729660959419 A 2.65 2.65 0 0 0 3.6427581114894 5.245091772735 L 2.75 2.75 L 3.5606430032559 5.2729660959419" fill="#fff"/><path d="M 3.6427581114894 5.245091772735 A 2.65 2.65 0 0 0 3.723917231976 5.2145456427626 L 2.75 2.75 L 3.6427581114894 5.245091772735" fill="#000"/><path d="M 3.723917231976 5.2145456427626 A 2.65 2.65 0 0 0 3.8040334574966 5.1813604155859 L 2.75 2.75 L 3.723917231976 5.2145456427626" fill="#fff"/><path d="M 3.8040334574966 5.1813604155859 A 2.65 2.65 0 0 0 3.8830209975902 5.1455716267771 L 2.75 2.75 L 3.8040334574966 5.1813604155859" fill="#000"/><path d="M 3.8830209975902 5.1455716267771 A 2.65 2.65 0 0 0 3.9607952704206 5.1072175998679 L 2.75 2.75 L 3.8830209975902 5.1455716267771" fill="#fff"/><path d="M 3.9607952704206 5.1072175998679 A 2.65 2.65 0 0 0 4.0372729933483 5.0663394053109 L 2.75 2.75 L 3.9607952704206 5.1072175998679" fill="#000"/><path d="M 4.0372729933483 5.0663394053109 A 2.65 2.65 0 0 0 4.112372272112 5.0229808165007 L 2.75 2.75 L 4.0372729933483 5.0663394053109" fill="#fff"/><path d="M 4.112372272112 5.0229808165007 A 2.65 2.65 0 0 0 4.1860126885231 4.9771882629003 L 2.75 2.75 L 4.112372272112 5.0229808165007" fill="#000"/><path d="M 4.1860126885231 4.9771882629003 A 2.65 2.65 0 0 0 4.2581153865791 4.9290107803229 L 2.75 2.75 L 4.1860126885231 4.9771882629003" fill="#fff"/><path d="M 4.2581153865791 4.9290107803229 A 2.65 2.65 0 0 0 4.3286031569049 4.8784999584237 L 2.75 2.75 L 4.2581153865791 4.9290107803229" fill="#000"/><path d="M 4.3286031569049 4.8784999584237 A 2.65 2.65 0 0 0 4.3974005194307 4.8257098854559 L 2.75 2.75 L 4.3286031569049 4.8784999584237" fill="#fff"/><path d="M 4.3974005194307 4.8257098854559 A 2.65 2.65 0 0 0 4.4644338042174 4.7706970903519 L 2.75 2.75 L 4.3974005194307 4.8257098854559" fill="#000"/><path d="M 4.4644338042174 4.7706970903519 A 2.65 2.65 0 0 0 4.5296312303446 4.7135204821906 L 2.75 2.75 L 4.4644338042174 4.7706970903519" fill="#fff"/><path d="M 4.5296312303446 4.7135204821906 A 2.65 2.65 0 0 0 4.5929229827755 4.6542412871162 L 2.75 2.75 L 4.5296312303446 4.7135204821906" fill="#000"/><path d="M 4.5929229827755 4.6542412871162 A 2.65 2.65 0 0 0 4.6542412871162 4.5929229827755 L 2.75 2.75 L 4.5929229827755 4.6542412871162" fill="#fff"/><path d="M 4.6542412871162 4.5929229827755 A 2.65 2.65 0 0 0 4.7135204821906 4.5296312303446 L 2.75 2.75 L 4.6542412871162 4.5929229827755" fill="#000"/><path d="M 4.7135204821906 4.5296312303446 A 2.65 2.65 0 0 0 4.7706970903519 4.4644338042174 L 2.75 2.75 L 4.7135204821906 4.5296312303446" fill="#fff"/><path d="M 4.7706970903519 4.4644338042174 A 2.65 2.65 0 0 0 4.8257098854559 4.3974005194307 L 2.75 2.75 L 4.7706970903519 4.4644338042174" fill="#000"/><path d="M 4.8257098854559 4.3974005194307 A 2.65 2.65 0 0 0 4.8784999584237 4.3286031569049 L 2.75 2.75 L 4.8257098854559 4.3974005194307" fill="#fff"/><path d="M 4.8784999584237 4.3286031569049 A 2.65 2.65 0 0 0 4.9290107803229 4.2581153865791 L 2.75 2.75 L 4.8784999584237 4.3286031569049" fill="#000"/><path d="M 4.9290107803229 4.2581153865791 A 2.65 2.65 0 0 0 4.9771882629003 4.1860126885231 L 2.75 2.75 L 4.9290107803229 4.2581153865791" fill="#fff"/><path d="M 4.9771882629003 4.1860126885231 A 2.65 2.65 0 0 0 5.0229808165007 4.112372272112 L 2.75 2.75 L 4.9771882629003 4.1860126885231" fill="#000"/><path d="M 5.0229808165007 4.112372272112 A 2.65 2.65 0 0 0 5.0663394053109 4.0372729933483 L 2.75 2.75 L 5.0229808165007 4.112372272112" fill="#fff"/><path d="M 5.0663394053109 4.0372729933483 A 2.65 2.65 0 0 0 5.1072175998679 3.9607952704206 L 2.75 2.75 L 5.0663394053109 4.0372729933483" fill="#000"/><path d="M 5.1072175998679 3.9607952704206 A 2.65 2.65 0 0 0 5.1455716267771 3.8830209975902 L 2.75 2.75 L 5.1072175998679 3.9607952704206" fill="#fff"/><path d="M 5.1455716267771 3.8830209975902 A 2.65 2.65 0 0 0 5.1813604155859 3.8040334574966 L 2.75 2.75 L 5.1455716267771 3.8830209975902" fill="#000"/><path d="M 5.1813604155859 3.8040334574966 A 2.65 2.65 0 0 0 5.2145456427626 3.723917231976 L 2.75 2.75 L 5.1813604155859 3.8040334574966" fill="#fff"/><path d="M 5.2145456427626 3.723917231976 A 2.65 2.65 0 0 0 5.245091772735 3.6427581114894 L 2.75 2.75 L 5.2145456427626 3.723917231976" fill="#000"/><path d="M 5.245091772735 3.6427581114894 A 2.65 2.65 0 0 0 5.2729660959419 3.5606430032559 L 2.75 2.75 L 5.245091772735 3.6427581114894" fill="#fff"/><path d="M 5.2729660959419 3.5606430032559 A 2.65 2.65 0 0 0 5.2981387638598 3.4776598381901 L 2.75 2.75 L 5.2729660959419 3.5606430032559" fill="#000"/><path d="M 5.2981387638598 3.4776598381901 A 2.65 2.65 0 0 0 5.3205828209655 3.3938974767436 L 2.75 2.75 L 5.2981387638598 3.4776598381901" fill="#fff"/><path d="M 5.3205828209655 3.3938974767436 A 2.65 2.65 0 0 0 5.3402742336005 3.3094456137513 L 2.75 2.75 L 5.3205828209655 3.3938974767436" fill="#000"/><path d="M 5.3402742336005 3.3094456137513 A 2.65 2.65 0 0 0 5.3571919157068 3.2243946823831 L 2.75 2.75 L 5.3402742336005 3.3094456137513" fill="#fff"/><path d="M 5.3571919157068 3.2243946823831 A 2.65 2.65 0 0 0 5.3713177514067 3.1388357573067 L 2.75 2.75 L 5.3571919157068 3.2243946823831" fill="#000"/><path d="M 5.3713177514067 3.1388357573067 A 2.65 2.65 0 0 0 5.3826366144015 3.0528604571621 L 2.75 2.75 L 5.3713177514067 3.1388357573067" fill="#fff"/><path d="M 5.3826366144015 3.0528604571621 A 2.65 2.65 0 0 0 5.3911363841693 2.9665608464542 L 2.75 2.75 L 5.3826366144015 3.0528604571621" fill="#000"/><path d="M 5.3911363841693 2.9665608464542 A 2.65 2.65 0 0 0 5.3968079589437 2.8800293369677 L 2.75 2.75 L 5.3911363841693 2.9665608464542" fill="#fff"/><path d="M 5.3968079589437 2.8800293369677 A 2.65 2.65 0 0 0 5.3996452654603 2.7933585888102 L 2.75 2.75 L 5.3968079589437 2.8800293369677" fill="#000"/><path d="M 5.3996452654603 2.7933585888102 A 2.65 2.65 0 0 0 5.3996452654603 2.7066414111898 L 2.75 2.75 L 5.3996452654603 2.7933585888102" fill="#fff"/><path d="M 3.05 2.75 A 0.3 0.3 0 0 0 2.45 2.75 A 0.3 0.3 0 0 0 3.05 2.75" fill="#fff"/><path d="M 3.05 2.75 A 0.3 0.3 0 0 0 2.45 2.75 A 0.3 0.3 0 0 0 3.05 2.75" fill="none" stroke="#000" stroke-width="0.008"/><path d="M 5.4 2.75 A 2.65 2.65 0 0 0 0.1 2.75 A 2.65 2.65 0 0 0 5.4 2.75" fill="none" stroke="#000" stroke-width="0.008"/><path d="M 5.5 2.75 A 2.75 2.75 0 0 0 0 2.75 A 2.75 2.75 0 0 0 5.5 2.75" fill="none" stroke="#000" stroke-width="0.008"/></svg>
